<?xml version="1.0" encoding="utf-8"?>
<!-- Generator: Adobe Illustrator 26.0.3, SVG Export Plug-In . SVG Version: 6.00 Build 0)  -->
<svg version="1.1" xmlns="http://www.w3.org/2000/svg" xmlns:xlink="http://www.w3.org/1999/xlink" x="0px" y="0px"
	 viewBox="0 0 1367.97 1003.05" style="enable-background:new 0 0 1367.97 1003.05;" xml:space="preserve">
<style type="text/css">
	.st0{font-family:'Battlefin-BlackItalic';}
	.st1{font-size:76.0182px;}
	.st2{letter-spacing:-0.94;}
	.st3{display:none;}
</style>
<g id="Layer_3">
	<g>
		<g>
			<path d="M900.45,758.58c30.5,23.95,54.4,51.86,79.34,79.76c-18.07,1.8-35.45,2.04-49.85,13.83
				c-13.55,11.09-19.16,27.59-30.24,44.32c0-8.34-0.17-13.47,0.03-18.59c0.66-16.41-0.04-32.58-4.57-48.6
				c-6.16-21.78-20.68-36.83-37.9-50.07c-4.98-3.83-8.2-0.97-10.54,2.75c-9.61,15.32-22.49,21.06-39.97,14.66
				c-0.65-0.24-1.52-0.45-2.09-0.2c-16.96,7.19-27.08-4.14-39.58-12.64c-17.79-12.1-38.74-17.56-60.52-18.1
				c-17.29-0.43-27.96-4.49-29.6-24.29c-0.73-8.78-4.81-16.44-17.2-17.72c-16.77-1.74-24.44-22.99-14.75-37.67
				c3.74-5.67,7.53-11.26,9.83-17.62c2.35-6.51-0.1-11.16-7.27-10.31c-13.55,1.59-23.91-3.84-34.06-11.96
				c-7.44-5.95-15.83-10.95-24.36-15.24c-8.45-4.26-18.58-3.82-27.05-9.55c-1.29,2.82-2.29,4.33-2.69,5.99
				c-8.23,34.23-29.22,59.38-58.82,76.42c-21.42,12.33-36.7,28.6-46.62,50.74c-4.46,9.97-11.12,18.22-21.13,23.22
				c-3.38,1.69-6.79,4.2-12.07,1.13c4.8-18.36,4.16-37.23,0.69-56.19c-2.42-13.25-4.57-26.54-4.89-40.15
				c-0.57-24.61,4.14-47.34,19.84-67.01c1.49-1.86,3.32-3.79,2.8-6.67c-3.11-3.9-5.89-2.08-9.04,0.24
				c-26.34,19.45-54.41,22.55-84.46,9.22c-7.18-3.18-12.94-6.26-8.9-15.84c-6.75,0.54-10.7,4.33-15.07,7.1
				c-22.88,14.49-46.91,11-71.02,4.45c-6.15-1.67-6.98-6.03-3.92-11.68c5.43-10.02,5.23-20.34,0.41-31.83
				c-31.05,14.22-61.28,4.48-91.63-2.45c-6.21-1.42-11.93,1.1-17.79,2.28c-12.97,2.63-25.94,4.85-39.03,1.02
				c-5.03-1.47-10.47-2.45-13.61-7.72c0.58-0.91,0.93-2.2,1.71-2.55c23.48-10.73,39.65-29.08,54.32-49.71
				c21.52-30.27,51.77-44.44,90.29-43.55c-12.7-18.99-12.26-37.75-2.95-56.97c3.62-7.48,3.08-12.62-7.24-15.26
				c-26.75-6.85-42.48-27.2-56.13-49.38c-2.97-4.83-5.75-9.89-7.79-15.16c-10.89-28.28-25.91-53.74-49.17-73.77
				c-1.28-1.1-2.07-2.76-5.15-6.98c24.69,0.19,46.98,2.75,69.27,2.14c22.6-0.61,45.48-2.81,66.27,6.12
				c1.71-1.64,2.71-2.21,2.64-2.59c-4.69-25.48,10.99-48,10.53-72.98c-0.17-8.98,4.14-17.01,12.39-21.84
				c3.67,2.08,3.87,5.54,5.24,8.34c8.57,17.47,19.23,33.34,36.07,43.94c14.68,9.23,28.56,19.02,33.4,36.99
				c13.87-7.09,28.69,12.37,31.06,31.93c8.12-8.01,11.9-19.6,22.46-23.88c10.73-4.35,21.66-1.49,34.03,2.03
				c-4.9-24.29,4.37-46.3,5.53-69.16c0.75-14.89,1.75-29.8-8.07-42.07c4.89-4.29,8.7-2.61,11.36-0.84
				c28.89,19.18,62.45,29.86,89.5,52.95c40.56,34.63,49.55,73.65,34.81,126.74c-2.16,7.76-2.65,14.12,1.4,21.23
				c6.35,11.17,11.5,22.92,11.88,36.11c0.11,3.88,1.09,8.58-0.66,11.53c-8.28,14.02-2.05,24.1,9.16,34
				c9.78-46.52,43.06-88.4,23.27-140.16c9.99-2,14.77,3.06,18.65,8.29c22.19,29.9,47.61,57.74,60.74,93.53
				c0.34,0.93,1.17,1.69,2.77,3.93c14-21.29,35.91-30.8,57.06-41.59c10.27-5.24,16.25-15.53,25.62-25.22
				c2.27,11.16,2.38,20.94-0.69,29.51c-7.9,22.03-4.96,43.95-2.46,66.21c4.95,44.11-9.42,79.51-48.46,103.42
				c2.38,1.91,5.29,2.52,7.54,0.66c17.26-14.23,37.32-10.69,56.97-8.96c4.61,0.4,8.03-0.93,12.05-2.58
				c13.22-5.43,27.03-8.88,38.97,2.27c11.89,11.1,26.14,13.08,41.31,13.83c15.36,0.76,31.48-3.24,45.65,6.69
				c1.6,1.12,4.78,0.09,7.22-0.12c4.97-0.41,10.92-2.21,14.67,0.58c10.64,7.94,16.01,0.83,22.47-5.87
				c15.43-16.03,49.66-21.64,68.59-10.95c5.89,3.33,9.42,2.44,13.75-2.15c6.49-6.88,14.64-10.34,24.16-7.55
				c15.44,4.53,31.1,2.52,46.6,1.65c39.02-2.19,78-5.18,117.01-7.64c14.13-0.89,24.46,9.43,26.05,25.33
				c1.72,17.24-3.57,23.72-21.27,26.36c-45.33,6.77-90.83,12.41-135.81,21.43c-6.01,1.2-11.29,3.3-15.79,7.47
				c2.43,3.35,5.35,2.81,7.2,1.73c22.96-13.41,49.22-12.96,74.2-17.54c25.85-4.74,51.99-7.88,77.93-12.18
				c8.28-1.37,12.45,1.95,15.72,9c9.54,20.54,2.1,35.35-19.63,41.98c-39.76,12.12-79.2,25.3-118.81,37.94
				c-6.97,2.23-11.02,7.55-14.96,13.06c-4.99,6.98-11.27,10.57-20.13,8.67c-10.62-2.27-21.15-0.05-31.69,1.03
				c-0.35,0.04-0.89-0.15-1.04,0.03c-10.52,12.45-27.82,14.71-39.06,25.09c-9.59,8.85-19.08,14.43-31.84,14.21
				c-5.25-0.09-9.27,1.6-13.67,4.5c-17.22,11.32-36.9,18.37-53.68,30.55C911.67,750.88,906.7,754.22,900.45,758.58z M278.61,274.61
				c-7.04-9.66-15.68-18.09-21.71-29.92c-1.26,18.28,1.53,22.46,19.97,31.53c6.81,5.76,13.62,11.51,19.6,16.57
				C292.24,286.33,287.21,278.95,278.61,274.61z M976.93,577.23l-0.12-0.14c1.43,6,5.87,8.79,11.38,9.77
				c6.96,1.24,14.2,1.22,21.01,2.93c12.52,3.14,21.69-0.99,30.19-10.18c10.29-11.13,10.01-18.11-2.22-26.8
				c-7.84-5.57-17.53-6.62-25.87-10.65c1.46-5.27,6.68-2.03,8.8-4.98c-1.45-2.43-3.97-3.83-6.2-3.67
				c-13.89,1.04-27.74,3.89-38.51,12.78c-4.66,3.84-12.82,9.5-8.13,18.4C969.69,569.28,973.66,573.07,976.93,577.23z M159.39,297.58
				c0.96,7.17,4.3,13.54,7.24,19.94c10.76,23.48,23.38,45.62,46.94,58.92c12.27,6.93,16.31,5.09,20.28-9.66
				c-15.65-5.38-32.39-9.21-44.44-21.82c10.4,2.63,20.16,6.67,30.18,9.88c10.1,3.23,20.4,5.16,30.99-4.02
				c-27.57-12.01-59.09-11.86-79.48-36c20.67,11.95,43.35,17.31,66.5,21.46c-22.7-19.9-51.35-27.52-78.3-38.6
				c5.07-4.62,10.28-1.01,15.08,0.26c9.62,2.55,18.99,5.99,31.26,9.96c-17.6-14.77-39.03-17.18-52.87-32.31
				c13.24,4.75,25.42,12.12,39.89,13.06c-7.92-4.97-15.83-9.94-23.75-14.92c0.53-0.79,1.07-1.58,1.6-2.38
				c25.96,7.18,43.5,27.33,63.63,43.72c-7.3-18.91-21.84-31.37-36.7-43.8c12.41,2.23,21.13,9.65,29.03,18.14
				c10.5,11.28,17.7,24.84,25.73,37.83c4.37,7.08,9.32,13.8,19.5,14.52c-5.34-25.76-19.39-45.31-37.55-62.61
				c21.13,7.1,30.33,25.62,42,41.8c7.33-7.45,6.26-13.91,0.55-21.13c-7.1-8.99-16.49-14.28-26.47-19.17
				c-34.23-16.77-70.61-13.02-106.76-11.5c-0.4,0.02-0.76,1.02-1.37,1.91C147.8,279.83,153.6,288.7,159.39,297.58z M528.59,231.51
				c2.8,9.5,9.82,17.4,10.85,27.48c1,9.82,2.64,19.54,2.75,29.51c0.1,9.04-5.04,18.49,0.87,27.27c5.31-18.37,6.8-36.86,2.02-55.29
				c-2.84-10.97-7.24-21.46-16.46-29.01c-1.89-5.31-6.7-8.12-10.25-12.03c-19.54-21.51-46.92-30.64-71.41-45.42
				c-0.71,11.12-0.96,22.04-2.22,32.83c-1.27,10.91-3.91,21.65-5.23,32.56c-0.8,6.66-0.43,13.44,2.5,19.86
				c6.39,13.98,12.17,14.88,23.02,3.07c-7-8.52-17.71-14.55-19.35-26.97c8.19,7.38,14.4,16.63,23.84,22.49
				c3.13,1.94,6.3,3.9,9.23-0.28c2.57-3.66,3.03-7.15-0.91-10.28c-4.18-3.32-8.34-6.65-12.46-10.04
				c-8.61-7.09-14.8-15.66-16.17-27.34c9.15,8.5,13.59,21.62,27.16,27.67c-8.35-16.85-17.95-31.48-23.4-47.93
				c0.8-0.41,1.6-0.82,2.39-1.23c3.84,6.03,7.69,12.05,11.53,18.08c0.29-0.15,0.58-0.31,0.87-0.46c-1.71-5.01-3.42-10.02-5.13-15.04
				c14.96,13.67,10,36.78,26.57,49.8c2.38-11.18-4.45-21.64-2.43-34.48c6.31,8.5,6.86,16.72,8.22,24.57
				c0.86,4.96,2.12,8.06,8.15,6.55c6.2-1.55,5.38-5.09,3.96-9.73c-1.88-6.16-7.57-10.77-8.07-18.46
				c13.3,5.43,10.35,23.94,23.85,28.03c2.33-3.33-1.23-5.8,0.92-7.93C526.13,228.75,527.04,230.81,528.59,231.51z M413.45,593.79
				c-3.59-5.97-7.36-11.19-10-16.94c-2.62-5.71-5.42-8.33-12.2-6.27c-7.61,2.31-10.63-1.65-9.22-9.2c1.3-6.98,2.77-13.93,3.95-20.92
				c2.3-13.68-1.92-21.42-15.01-26.54c-7-2.74-13.65-5.82-19.66-10.45c-11.71-9.03-14.44-8.03-18.92,6.19
				c-1.24,3.95-1.8,9.68-7.82,7.59c-9.99-3.46-13.55,3.04-17.16,9.76c-6.27,11.65-10.32,24.09-13.42,36.94
				c-2.07,8.58-3.75,17.74-13.2,22.71c6.12-15.38,8.32-31.39,10.16-47.48c1.1-9.63,3.77-18.85,8.54-27.28
				c2.68-4.73,4.32-8.72-0.55-13.16c-4.91-4.47-8.6-10.82-17.04-7.09c-5.67,2.5-11.63,4.32-19.23,7.09
				c3.97-8.85,10.74-11.54,16.31-15.46c6.03-4.25,7.25-11.87,2.53-17.15c-5.09-5.71-23.02-6.4-28.79-1.11
				c-11.21,10.27-16.95,37.07-11.24,50.77c2.58,6.19,5.96,8.08,12.3,5.08c6.51-3.08,12.76-7.32,20.19-7.61
				c1.25,3.51-0.59,4.95-2.02,6.4c-11.97,12.12-13.32,26.97-10.81,42.66c1.73,10.83,5.22,21.42,3.44,32.65
				c-0.78,4.89,1.84,7.16,6.7,7.35c12.78,0.48,25.32,1.36,37.24-5.72c7.85-4.66,16.89-7.39,25.53-10.62
				c4.99-1.87,10.07-3.33,14.5-6.53c2.95-2.13,4.98-8.98,9.95-3.64c3.71,3.99,4.87,9.11,1.37,14.65c-2.56,4.04-5.97,7.9-6.36,13
				C371.69,614.09,400.37,609.6,413.45,593.79z M517.3,583.86c0.04-17.94,8.56-28.57,18.29-39.58
				c12.14-13.74,18.03-31.59,26.33-47.26c-4.74-5.1-11.57-4.69-15-10.19c4.61-3.42,9.68-3.84,14.32-5.29
				c4.03-1.26,7.01-3.01,7.35-7.84c0.83-11.85,0.28-23.54-4.69-34.5c-5.28-11.64-15.04-14.55-25.75-7.91
				c-5.43,3.37-10.53,7.26-15.82,10.85c-3.51,2.38-5.39,5.08-4.43,9.79c0.98,4.8,0.86,9.83,1.25,15.15
				c2.93,0.38,3.86-4.97,7.66-2.07c0.45,7.02-2.88,13.31-5.85,19.68c-11.93,25.55-33.75,39.69-58.6,49.93
				c-7.9,3.25-13.24,7.85-15.54,16.05c-1.67,5.96-3.58,11.85-5.48,18.12c-4.44-2.58-3.88-6.44-4.65-9.69
				c-0.79-3.32,0.87-7.19-2.13-10.02c-14.55,2.91-20.9,9.93-17.73,19.51c5.12,15.5,24.47,28.61,40.78,27.03
				c14.41-1.4,27-7.71,39.21-15.26c-3.54-13.21-12.45-24.24-10.56-38.15C496.46,555.26,500.76,572.2,517.3,583.86z M699.1,589.34
				c11.48,13.04,22.65,24.32,35.93,33.36c6.04,4.11,12.02,5.3,18.68,0.71c7.91-5.43,16.92-7.84,26.39-5.36
				c29.79,7.8,58.52-0.51,87.42-5.58c5.32-0.93,10.54-3.28,15.72-7.75c-9.35-4.02-16.02-9.92-23.33-14.87
				c-12.13-8.21-26.42-11.61-40.45-11.25c-10.99,0.28-20.67,0.84-30.23-5.89c-10.02-7.06-19.41,7.1-30.28,2.1
				c-4.96-2.28-11.05-2.14-16.64-3.04c-3.6-0.58-7-0.38-10.11,2.01C722.8,581.05,712,585.53,699.1,589.34z M1120.81,604.09
				c-12.61,3.74-24.65,5.63-37.19,0.71c-8.12-3.18-16.76-3.72-22.65,3.46c-5.67,6.9,2.74,12.05,4.45,18.11
				c1.83,6.51,13.34,12.41,1.64,20.13c-0.36,0.24-0.05,2.19,0.48,3c5.2,7.98,13.9,5.84,21.31,6.79c5.85,0.75,6.1-4.75,7.01-8.83
				c1.86-8.3,4.17-16.28,12.44-20.68c3.3,3.61-1.82,7.32,1.41,10.69c20.42-6.54,40.91-13.11,61.41-19.67
				c-10.99-1.37-21.22,3.58-33.07,1.82c4.12-4.5,8.51-5.21,12.47-6.28c22.28-6.03,44.64-11.77,66.99-17.54
				c7.91-2.04,15.85-3.96,23.81-5.79c4.06-0.93,6.31-3.01,5.81-7.41c-0.55-4.92-4.13-5.23-7.85-4.99c-4.25,0.27-8.51,0.6-12.7,1.29
				c-25.21,4.16-50.07,10.29-75.53,13.15c-13.48,1.51-27.09,2.72-40.87,6.58C1113.6,601.8,1118.33,598.55,1120.81,604.09z
				 M535.63,395c-10.09,13.7-25.25,16.75-40.08,20.49c-13.91,3.51-25.87,10.18-35.24,20.37c1.77,4.13,6.4,2.62,6.66,7.49
				c-21.7,4.34-39.54,15-50.07,35.35c-9.84,19-15.25,39.04-13.13,62.82c2.92-4.13,4.64-6.35,6.15-8.71
				c13.89-21.81,30.6-40.13,57.06-46.51c4.27-1.03,6.41-4.11,7.77-8.01c7.51-21.55,20.41-38.27,40.49-50.21
				C526.73,421.26,536.12,410.93,535.63,395z M324.32,340.57c5.71,3.96,9.79,6.61,13.67,9.52c6.68,5.01,11.35,5.16,15.79-3.45
				c6.44-12.5,17.89-18.85,31.56-21.29c3.42-0.61,7.32-0.37,8.52-4.91c2.62-9.87,9.91-15.94,19.01-21.56
				c-8.04-7.47-13.37-19.28-25.21-16.23c-12.09,3.12-14.63,15.25-16.23,26.51c-0.47,3.31,1.26,7.1-2.22,10.21
				c-7.76-2.23-7.93-11.17-14.11-16.49c-6.72,10.21-17.18,13.34-27.9,16.15c-5.14,1.35-10.47,2.63-15.12,5.07
				c-10.72,5.64-22.58,11.44-23.63,25.24c-1.13,14.91,3.5,29.12,9.09,43.28c4.46-1.37,7.84-2.2,10.11-6.47
				c-2.39-7.22-10.62-13.5-7.32-23.59c6.42,4.05,9,11.15,16.13,13.9c5.05-7.95,9.42-16.99,24.31-15.5
				c-5.13-4.34-8.06-6.35-10.38-8.91C328.08,349.5,325.24,347.1,324.32,340.57z M1054.64,538.05c13.76,5.37,19.24,17.75,13.97,31.08
				c-0.82,2.07-1.95,4.06-0.31,5.88c2.37,2.63,5.27,1.39,7.86,0.23c11.38-5.07,22.88-9.63,35.32-11.56
				c40.34-6.24,80.66-12.62,120.99-18.92c5.87-0.92,11.84-1.72,10.6-9.97c-1.17-7.79-5.97-10.45-13.64-9.89
				c-20.54,1.5-41.11,2.53-61.65,3.95c-21.8,1.5-43.58,3.24-65.61,4.89c2.75,5.98,10.45,4.56,14.17,10.85
				c-11.56,2.06-20.84-1.97-29.9-6.27c-6.45-3.06-12.85-6.15-19.94-7.23C1060.88,530.25,1055.91,531.09,1054.64,538.05z
				 M521.7,382.16c12.04-8.94,12.25-9.48,3.98-20.74c-3.35-4.56-7.22-8.79-11.16-12.87c-18.92-19.62-36.39-40.05-40.39-68.47
				c-0.06-0.42-1.09-0.71-1.9-1.2c-11.39,5.7-23.15,11.24-28.32,24.18c-4.22,10.56-10.64,16.1-22.79,14.19
				c-6.28-0.99-6.42-0.09-9.19,6.14c36.06-8.73,57.08,11.7,74.89,39.73c0.91-8.04-3.17-15.32,0.82-23.4
				c13.55,17.81,7.63,38.23,10.58,59.1c13.53-10.82,10.19-25.95,15.82-38.28C519.59,367.5,518.21,375.7,521.7,382.16z
				 M908.31,629.07c0.7-4.35,6.38-7.73,1.79-11.94c-4.4-4.04-9.25-2.3-13.84,0.11c-1.26,0.66-2.44,1.47-3.7,2.1
				c-25.83,13.01-52.79,22.62-81.51,26.82c-5.56,0.81-11.24,3.3-17.91,0.45c5.12-5.32,12.66-3.63,17.52-9.17
				c-12.17,0.89-22.96-1.4-33.75-3.43c-7.76-1.46-13.99,1.26-19.22,6.6c-1.97,2.01-3.81,6.15-0.26,6.92
				c8.02,1.73,5.36,7.36,4.7,11.4c-1.04,6.4-3.49,12.57-5.41,19.07c1.82,0.34,2.88,0.83,3.83,0.67c7.57-1.32,12.87-7.51,20.03-9.6
				c41.5-12.12,82.89-24.79,126.25-28.78c3.86-0.35,8.51,0.22,9.33-4.9C917.03,629.89,910.79,632.14,908.31,629.07z M123.46,554.18
				c22.15-4.11,43,0.45,63.88,4.3c12.85,2.37,37.93-11.69,42.67-23.81c1.25-3.21,0.39-5.68-1.64-7.76
				c-2.23-2.29-4.79-0.81-6.72,0.68c-3.36,2.61-6.35,5.68-9.64,8.38c-8.61,7.09-17.55,13.49-29.52,13.28
				c9.74-8.79,22.39-14.01,30.17-26.37c-10.71-0.53-18.11,4-25.46,9.2c-6.83,4.83-12.39,11.85-21.7,14.18c1.03-6,6.8-7.3,8.65-13.35
				c-10.71,5.84-20.05,12.33-31.78,12.37c11.46-6.47,22.21-13.67,33.64-21.29c-6.09-1.51-11.77,2.58-18.84-2.87
				c20.14-5.85,40.2-3.22,59.39-9.99c-14.21-7.01-28.89-1.67-42.26-6.48c10.9-7.33,22.93-5.55,34.61-4.6
				c14.85,1.21,15.2,1.2,13.91-15.13c-4.33-2.22-9.11-1.67-13.44-0.64c-20.5,4.9-38.7,13.97-52.63,30.39
				C145.79,527.59,139.28,544.24,123.46,554.18z M469.85,703.19c12.65-8.38,23.31-14.61,33.04-22.05
				c23.63-18.05,38.69-41.24,40.67-71.73c0.64-9.8-2.13-17.82-12.49-24.32c2.3,15.25-1.89,28.42-2.51,42
				c-0.63,13.71-5.4,26.98-14.69,40.26c-1.72-6.88,1.19-10.02,2.57-13.46c6.04-15.05,6.91-30.35,2.78-45.95
				c-1.39-5.23-3.49-9.95-10.81-9.4c-0.84,10.41-1.97,20.26-2.35,30.14c-0.38,9.63-1.36,19.13-3.69,28.46
				c-2.27,9.11-3.95,18.58-12.02,25.11c5.14-20.6,11.44-40.73,5.81-63.46c-6.94,6.79-11.87,13.27-13.4,21.42
				C479,660.36,477.58,680.92,469.85,703.19z M858.21,557.51c-11.42-7.49-22.67-14.74-33.77-22.2c-4.44-2.98-8.67-6.24-14.23-6.71
				c-7.56-0.63-13.03,0.9-10.71,10.49c1.02,4.19,0.76,8.39-0.02,12.65c-1.72,9.44,1.08,12.92,10.4,11.71
				c25.66-3.35,48.3,2.65,68.24,19.51c6.72,5.69,15.14,11.51,24.21,7.55c9.49-4.14,8.47-14.9,9.47-23.39
				c1.21-10.23-4.74-16.27-15.1-15.93c-12.81,0.42-25.44-1.22-38.19-2.11C856.59,551.64,861.56,553.07,858.21,557.51z
				 M253.37,409.32c-13.12,4.92-21.69,22.45-18.34,33.18c1.2,3.85,3.55,5.09,7.24,4.07c12.04-3.31,23.8-2.01,35.65,1.35
				c6.53,1.85,9.68-1.26,7.8-8.04c-1.51-5.47-3.13-10.8-3.44-16.58c-0.36-6.59,4.67-13.16,2.73-18.61
				c-5.06-14.21-9.67-28.57-13.58-43.64c-13.82,3.27-22.3,10.74-27.74,22.48C238.55,394.64,242.97,402.42,253.37,409.32z
				 M489.87,602.83c-8.73,2.42-16.84,5.91-25.64,6.84c-5.36,0.57-9.17,3.72-12.29,7.73c-13.03,16.71-20.51,35.23-21.25,56.83
				c-0.81,23.64,7.42,46.05,7.19,70.38c28.08-40.24,38.8-70.14,32.65-91.49c-11.53,19.13-19.76,39.08-25.8,60.14
				c-3.11-16.72,3.3-32.01,6.33-49.12c-8.86,4.91-9,14.61-16.79,21.69c3.86-28.95,30.78-39.87,42.48-63.38
				c-12.41,4.51-18.79,12.96-29.2,20.86C456.6,621.64,476.17,615.49,489.87,602.83z M781.04,686.85c5.87,6.55,6.36,6.55,6.31,15.44
				c-0.04,7.19,3.21,9.46,9.69,9.24c4.65-0.16,9.19-0.52,13.4-2.82c35.12-19.16,72.44-32.53,111.23-41.95
				c3.62-0.88,6.75-1.77,7.55-6.2c1.42-7.93-2.94-11.73-11.56-8.76c-22.82,7.86-45.21,16.99-68.53,23.39
				c-5.54,1.52-10.94,4.4-17.73,3.45c2.39-5.45,8.83-4.49,12.54-10.06C821.66,674.23,800.79,677.79,781.04,686.85z M309.5,429.91
				c-9.69,9.84-15.62,21.1-11.24,35.87c4.05,13.66,12.2,23.76,23.76,33.5c5.73-27.23,30.84-29.72,47.2-42.94
				c-3.69,0.18-7.38,0.36-11.07,0.54c11.19-10.79,25.06-8.92,38.41-9.7c-23.94-2.57-48-6.39-69.26,11.82
				c-0.29-1.05-0.59-2.1-0.88-3.15c3.09-3.6,6.17-7.19,9.72-11.33c-10.97-3.37-20.65,2.8-30.72,1.71c0.12-5.24,3.93-7.04,6.76-9.56
				c2.1-1.87,5.47-3.87,3.7-6.84c-4.44-7.46-4.1-15.94-5.36-24.88c-9.91,5.46-13.24,12.54-11.14,21.42
				C302.48,430.39,306.41,426,309.5,429.91z M794.98,752.02c10.96-1.73,18.36-1.73,24.68-6.48c21.45-16.08,46.23-26.33,69.43-39.33
				c16.64-9.31,35.27-12.81,53.73-16.65c5-1.04,10.12-2.96,7.77-9.96c-1.89-5.61-5.46-8.06-11.5-5.41
				c-24.42,10.71-49.47,19.9-74.85,27.89c-25.16,7.92-45.96,26.33-74.11,28.47C794.12,737.28,802.85,741.05,794.98,752.02z
				 M469.7,367.08c-9.92-17.06-22.56-29.45-40.01-29.33c-15.22,0.11-31.07,1.45-46.3,4.85c-5.04,1.12-9.82,3.27-12.66,9.5
				c9.18,0.44,17.59,3.54,23.05-5.76c11.74,14.85,13.51,15.01,26.99,3.95c3.34-2.74,6.65-6.15,12.21-5.32
				c-15.18,29.55-6.2,61.8-14.18,91.7c7.28-20.39,11.81-41.79,28.32-57.42c-2.99-2.41-5.88,3.61-8.89-1.29
				C446.07,368.99,456.49,366.87,469.7,367.08z M675.72,479.67c13.32-9.76,9.91-21.53,10.85-32.2c1.46-16.5,5.13-25.22,12.21-29.51
				c-0.89,10.86-6.11,21-4.07,34.21c9.61-19.22,4.25-40.63,16.62-57.39c3.89,5.48-2.71,9.98,0.79,15.32
				c7.97-12.35,16.52-23.63,28.47-31.95c-6.75,14.99-21.03,25.47-24.65,43.11c9.28-5.54,12.17-16.03,20.86-21
				c-9.16,22.45-33.34,36.29-34.93,62.69c-0.02,0,0.41,0.22,0.59,0.09c2.57-1.89,5.28-3.63,7.62-5.77
				c19.46-17.74,37.7-36.04,34.33-65.85c-0.4-3.55,1.89-7.49,3.21-11.15c1.84-5.13,3.93-10.17,5.92-15.25
				c-8.82,6.04-17.49,10.76-26.35,15.32c-19.26,9.91-32.1,24.99-38.28,46.18C684.03,443.26,684.8,461.17,675.72,479.67z
				 M668.06,690.99c-6.09,1.06-12.71,1.98-12.69,10.03c0.02,6.85,4.7,9.66,11.35,9.98c27.98,1.34,56.09,1.51,82.8,12.1
				c6.33,2.51,12.78-0.33,17.64-4.94c3.85-3.66,0.52-8.08-0.11-12.09c-1.16-7.4-7.37-6.97-12.49-6.97
				c-19.87-0.02-39.73,0.96-59.58-1.65C685.73,696.24,677.21,692.59,668.06,690.99z M682.58,626.12
				c-11.94-1.13-10.89,9.34-14.38,15.61c-3.75,6.75-2.01,10.53,5.7,11.95c16.11,2.96,31.46,8.17,46.3,15.23
				c9.96,4.74,18.43,2.02,20.78-5.31c2.89-9.02-4.09-22.49-12.8-24.05c-12.59-2.25-25.07-4.59-36.49-10.84
				C688.98,627.23,685.63,626.95,682.58,626.12z M888.23,725.87c-1.1,0.39-2.09,0.67-3.03,1.09c-25.9,11.48-47.94,30.09-74.62,40.2
				c-5.57,2.11-4.37,6.72-1.43,10.51c5.23,6.75,14.38,6.79,20.3-0.01c3.48-4,6.14-8.72,9.68-12.65c4.48-4.96,9.24-12.12,15.88-11.48
				c16.32,1.59,29.59-5.4,42.17-13.26c18.07-11.28,35.96-22.74,55.25-31.87c3.61-1.71,8.1-2.96,8.31-8.49
				c-27,7.29-48.64,26.23-75.22,34.11C884.2,729.77,889.41,729.33,888.23,725.87z M637.38,438.98
				c11.97-17.04,16.6-36.28,20.59-55.75c0.52-2.55,0.06-4.92-1.21-7.17c-8.62-15.38-19.45-29.12-31.32-44.48
				c-0.68,16.51-2.34,30.9-8.66,43.59c-6.26,12.56-1.56,23.86,0.5,35.86c7.31-18.46,9.42-38.06,13.28-57.43
				c5.93,14.44,0.87,29.99,5.54,45.9c4.86-12.32,3.47-24.25,7.28-35.22C651.4,389.94,635.56,413.81,637.38,438.98z M519.84,255.09
				c-16.3-3.86-23.81,0.55-26.91,14.16c-4.82,21.21,6.09,36.92,18.49,51.87c7.46,9,16.28,16.91,23.48,26.09
				c10.55,13.46,20.56,27.45,15.86,46.38c-0.55,2.22,0.44,4.83,0.72,7.26c3.57-11.22,3.53-21.94-1.05-32.38
				c-6.28-14.32-14.21-27.76-21.53-41.54C517,304.52,505.29,281.78,519.84,255.09z M574.88,489.05c9.38,13.87-6.27,22.07-4.8,33.85
				c22.63,6.35,44.03,16,65.6,27.36c-0.47-13.57-3.52-22.94-16.26-27.28c-6.96-2.37-11.89-8.66-16.46-14.66
				c-6.64-8.71-11.92-18.25-17.89-30.24C583.75,484.92,581.18,488.47,574.88,489.05z M411.12,382.39
				c-7.74-16.24-41.94-18.15-63.91-5.21c0.57,4.68,7.06,5.99,6.59,11.66c-8.14,1.17-12.17-8.18-20.02-8.07
				c-3.78,11.74-3.09,23.59-4.61,35.11c-0.42,3.21,1.21,7.02,2.8,10.08c2.68,5.15,7.97,5.29,13.01,5.36
				c2.68,0.04,5.22-0.66,5.52-3.74c0.41-4.18,1.09-8.53-2.45-12.01c-2.5-2.46-6.91-2.23-8.41-6.05c0.42-0.58,0.73-1.25,1.25-1.67
				c0.53-0.42,1.38-0.97,1.89-0.82c12.46,3.81,16-4.6,20.54-13.6C373.75,372.79,389.53,369.12,411.12,382.39z M730.87,733.8
				c-9.77-1.36-19.01-5.3-29.04-4.89c-9.67,0.4-11.72,3.42-9.3,12.7c1.77,6.78,6.71,7.62,12.21,7.7
				c19.06,0.29,37.23,4.17,54.23,12.99c3.57,1.85,7.37,2.55,11.31,2.27c5.34-0.39,10.41-2.44,10.67-8.22
				c0.23-5.26-1.77-10.43-8.08-12.29c-5.88-1.74-11.86-1.9-17.88-2c-10.11-0.17-20.12-1.03-29.76-3.75
				C725.49,733.66,729.19,735.38,730.87,733.8z M696.24,611.71c-13.41-16.51-13.43-16.45-31.7-21.39
				c-7.06-1.91-13.69-5.53-17.42-11.6c-5.82-9.47-14.6-14.33-24.11-18.35c-17.99-7.62-36.1-14.99-54.27-22.18
				c-3.16-1.25-6.79-4.34-10.56-0.66c1.18,4.26,4.75,4.4,7.65,5.08c40.1,9.42,71.93,31.3,96.67,63.91c2.48,3.27,5.24,6.09,9.81,4.4
				C680.4,607.94,688.27,609.4,696.24,611.71z M920.98,807.83c-11.31-9.98-21.84-20.79-35.46-28.01
				c7.11,9.69,14.56,18.97,19.8,29.79c5.4,11.16,7.48,23.34,11.19,36.63c8.79-9.97,19.31-14.78,31.88-18.58
				c-13.39-12.12-25.47-23.05-37.56-33.99C915.12,797.21,920.45,800.93,920.98,807.83z M747.32,419.36
				c-9.88,22.6-26.11,39.25-44.33,54.19c-7.68,6.29-14.28,13.19-18.22,23.76c12.84-4.73,24.23-10.04,33.66-17.95
				C736.53,464.19,754.04,448.08,747.32,419.36z M670.83,521.2c44.35-2.71,68.63-21.31,75.08-62.28
				c-16.58,22.4-19.32,25.01-39.16,36.4c-8.6,4.94-17.35,9.62-25.99,14.5C676.45,512.26,672.05,514.7,670.83,521.2z M559.4,579.97
				c-1.18,13.1,3.3,23.09,13.66,29.79c8.09,5.23,15.7,2.16,20.89-7.35c4.91-8.99-1.7-12.22-7.79-15.27
				c-10.41-5.21-21.7-8.55-30.52-16.91c-2.91-2.76-8.02-4.77-11.99,0.01C549.14,579.07,549.14,579.07,559.4,579.97z M352.1,484.24
				c4.14,3.3,6.24,5.1,8.47,6.72c16.77,12.13,28.63,9.19,37.07-9.11c1.18-2.56,2.59-5.02,3.74-7.59c1.37-3.05,4.51-6.16,0.87-9.49
				c-2.89-2.65-6.59-2.56-9.99-1.21c-3.25,1.28-6.62,2.72-9.33,4.85C374.29,475.2,365.34,481.32,352.1,484.24z M955.28,607.79
				c-6.74,0-13.45-0.18-20.14,0.06c-5.26,0.19-9.23,2.78-8.57,8.51c0.72,6.31,2.64,12.5,6.61,17.68c3.46,4.51,7.75,6.1,12.84,2.28
				c11.48-8.6,23.72-16.06,37.83-24.1c-12.46-2.02-22.08,6.51-32.24,2.99C950.01,610.69,955.79,611.27,955.28,607.79z
				 M298.61,285.78c-1-17.41-11.67-25.88-22.03-34.49c-8.16-6.79-13.88-14.92-17.28-26.73c6.43,2.7,7.13,7.48,9.88,10.56
				c2.86,3.2,5.03,7.15,10.18,7.95c-14.23-27.85-14.23-27.85-11.65-34.6c7.44,5.6,5.7,17.09,15.01,22.96
				c-2.29-14.82-8.65-25.35-19.77-34.69c-0.87,7.13-0.2,13.34-2.47,18.18c-8.23,17.51,0.92,29.87,11.33,41.81
				C279.93,266.06,290.21,273.39,298.61,285.78z M602.99,620.74c9.52,4.97,18.26,12.02,27.37,18.59c3.4,2.45,7.77,3.32,12.16,3.1
				c6.23-0.31,9.62-4.01,11.16-9.61c1.01-3.68,0.47-7.16-3.34-9.12c-4.72-2.44-9.49-4.29-12.36,2.46
				c-6.84-4.36-11.98-9.05-16.15-14.92c-4.64-6.53-9.55-6.75-14.08,0.25C606.06,614.09,603.2,616.03,602.99,620.74z M994.68,630.15
				c7.18,4.37,13.01,12.37,23.18,8.62c11.32-4.18,15.18-14.48,20.86-25.33c-11.21-3.04-20.22-8.81-30.81-3.63
				c-5.89,2.88-1.26,7.32-0.82,10.27C1003.14,624.41,996.75,623.85,994.68,630.15z M657.22,566.78c7.2,6.51,14.1,9.98,22.79,10.03
				c11.01,0.06,20.8-4.33,30.76-7.97c4.14-1.52,9.75-2.97,8.78-9.01c-0.76-4.71-1.09-10.62-6.05-13c-4.92-2.36-8.51,1.88-12.17,4.63
				c-5.73,4.31-10.94,8.81-7.93,16.5C680.82,574.64,670.93,553.87,657.22,566.78z M757.61,553.18c8.8-1.87,14.57-3.1,20.35-4.33
				c3.09-0.66,7.07-0.79,7.19-4.87c0.13-4.11-3.32-5.74-6.92-6.99c-12.39-4.3-24.67-1.37-36.79,0.9c-4.81,0.9-7.17,5.83-6.88,10.84
				c0.28,4.84,4.16,5.98,8.3,6.61c7.66,1.17,15.3,2.54,25.53,4.26C764.32,557.17,762.43,556.04,757.61,553.18z M663.04,389.95
				c-0.37-0.09-0.82-0.33-0.97-0.21c-0.23,0.19-0.34,0.62-0.38,0.96c-2.13,22.54-11.83,42.9-18.46,64.14c-2,6.4-3.8,12.69,0.4,19.16
				c3.66-2.6,5.08-6.26,6.52-9.78c6.02-14.76,10.13-30.19,15.35-45.18C669.33,408.03,668.18,399.27,663.04,389.95z M457.12,507.5
				c18.22,12.2,25.78-5.06,36.18-11.01c10.18-5.82,12.91-25.61,6.81-37.91c-7.69,9-11.69,19.44-13.55,30.72
				c-0.93,5.62-3.4,8.71-9.32,9.7C470.71,500.08,464.17,501.76,457.12,507.5z M345.19,268.29c-11.08,18.62-30.55,27.46-44.35,45.3
				c9.77-3.31,16.76-5.84,23.86-8.05c9.96-3.1,17.54-9.18,22.92-17.98C351.22,281.67,351.91,275.72,345.19,268.29z M398.34,389.55
				c-14.31,1.34-21.8,5.52-25.98,14.25c-2.85,5.96-7.66,13.4-3.53,18.83c4.69,6.16,13.27,4.63,20.87,2.98
				c4.76-1.03,8.76-5.59,14.45-4.06c-1,6-6.89,6.61-9.14,10.52c10.09,7.75,16.7,5.22,16.48-18.65c-12.3,4.85-25.22,5.67-38.89,8.85
				C375.77,407.08,383.74,397.16,398.34,389.55z M955.52,588.14c0.51-0.68,1.34-1.3,1.25-1.74c-2.69-12.85-12.93-20.47-21.28-29.07
				c-2.95-3.03-7.07,0.08-7.35,5.35c-0.26,4.91-0.88,9.81-1.64,14.67c-1.87,11.98,1.35,15.03,14.1,12.86
				c1.3-3.31-3.06-6.43-0.72-10.03C946.29,580.72,949.34,587.66,955.52,588.14z M947.51,654.91c12.52,8.86,23.28,5.85,38.96-10.34
				c-6.28-11.99-8.11-12.48-18.71-4.74C961.2,644.61,954.75,649.51,947.51,654.91z M311.63,282.9c19.07-11.55,16.73-32.85-4.01-45
				C312.6,252.6,311.49,267.1,311.63,282.9z M598.98,427.18c-6.56,16.03,6.49,44.66,25.41,55.95
				C620.52,461.4,599.68,448.89,598.98,427.18z M1011.52,660.77c0.06,7.22,7.15,15.99,12.56,14.67c4.9-1.2,11.44-3.93,10.65-9.76
				c-0.9-6.63-3.64-13.95-13.22-13.56C1015.51,652.36,1010.91,653.64,1011.52,660.77z M649.31,498.96
				c12.88-21.03,19.87-43.69,19.24-68.43C664.53,454.03,650.32,474.59,649.31,498.96z M609,393.44
				c-8.78,22.19-3.47,47.71,11.32,59.36C617.19,433.08,608.67,415.51,609,393.44z M303.48,264.77c0.33-31.88-0.88-37.22-15.18-39.46
				C290.47,239.26,293.69,252.42,303.48,264.77z M966.58,676.42c2.24,2.01,3.09,3.36,4.24,3.7c5.42,1.64,25.88-8.72,28.03-13.94
				c0.73-1.76,0.87-3.51-0.26-4.99c-1.93-2.51-4.42-1.83-6.62-0.49C983.72,665.72,975.54,670.86,966.58,676.42z M212.33,561.18
				c11.57,0.24,20.47-2.7,28.38-8.42c3.9-2.81,5.29-7.22,1.94-11.06c-3.27-3.75-6.41-0.39-9.11,1.82
				C226.98,548.91,220.49,554.38,212.33,561.18z M598.39,463.91c6.88,17.68,13.33,35.61,30.78,46.07
				C625.07,490.55,603.76,482.43,598.39,463.91z M574.2,561.82c3.11,4.56,8.26,5.84,12.93,7.71c7.31,2.93,15.1,5.64,19.29,12.53
				c4.31,7.08,10.24,8.13,19.23,8.5C609.25,576.92,593.82,565.68,574.2,561.82z M696.24,534.02c-13.12,3.23-24.27,3.12-34.77,10.13
				C679.07,550.83,683.47,549.65,696.24,534.02z M982.35,696.81c9.42,2.32,15.84-1.03,21.68-6.22c1.64-1.45,2.44-3.56,1.1-5.69
				c-1.32-2.11-3.36-2.3-5.54-1.44C993.05,686,987.27,689.54,982.35,696.81z M412.23,273.92c15.09,18.24,18.77,23.06,22.54,10.07
				C428.66,279.92,421.84,277.37,412.23,273.92z M704.32,681.02c-13.51-7.78-25.9-10.29-33.96-6.84
				C681.64,676.81,691.97,681.76,704.32,681.02z M438.66,433.22c7.47-4.68,10.9-10.86,6.67-20.8
				C441.04,419.43,439.52,426.13,438.66,433.22z M532.75,291.4c1.41-7.43,3.07-14.87-0.34-24.53
				C528.4,276.64,528.18,284.06,532.75,291.4z M483.35,383.72c-3.62-2.23-7.02-2.05-7.97,0.76c-1.42,4.22,0.45,8.41,4.01,13.98
				C480.57,392.34,483.83,388.89,483.35,383.72z M639.81,517.54c2.18,10.56,4.37,21.12,6.55,31.68
				C646.13,538.26,644.89,527.51,639.81,517.54z M1044.92,597.03c7.63,0.3,10.53-2.54,13.46-7.25
				C1051.73,587.61,1049.77,592.14,1044.92,597.03z M1049.62,650.61c0.06-4.62,0.46-9.41-2.91-15.31
				C1041.74,642.54,1046.61,646.44,1049.62,650.61z"/>
			<path d="M323.53,562.01c-1.19-18.98,10.8-36.74,24.81-39.08C339.83,536.34,331.68,549.17,323.53,562.01z"/>
			<path d="M1098.09,615.05c-11.3,5.69-17.18-0.69-25.76-7.48C1083.06,607.45,1089.92,610.65,1098.09,615.05z"/>
			<path d="M1134.08,552.58c27.38-9.86,55.91-9.45,84.24-10.76C1190.87,550.46,1162.68,553.46,1134.08,552.58z"/>
			<path d="M1086.62,549.07c-6.93,6.21-7.42,6.03-12.82-4.81C1080.33,543.93,1080.33,543.93,1086.62,549.07z"/>
			<path d="M976.93,577.23c-0.65-3.75-4.14-6.65-3.06-12.62c9.19,5.57,15.69,12.88,23.99,20.26c-10.6,3.08-15.26-3.72-21.04-7.78
				C976.81,577.09,976.93,577.23,976.93,577.23z"/>
			<path d="M823.41,731.29c-6.44,5.95-10.65,9.85-15.18,14.04c-4.2-3.07-6.6-6.49-6.85-12.11
				C807.8,732.65,813.92,732.12,823.41,731.29z"/>
		</g>
	</g>
</g>
<g id="Layer_2">
	<text transform="matrix(1.0647 1.618283e-03 -1.720000e-03 1 927.0639 322.4526)"><tspan x="0" y="0" class="st0 st1 st2">THE </tspan><tspan x="-139.26" y="62.83" class="st0 st1 st2">FRIENDLY </tspan><tspan x="-112.7" y="125.67" class="st0 st1 st2">DEAD CO.</tspan></text>
</g>
<g id="Layer_4" class="st3">
	
		<text transform="matrix(0 1 -1 0 -658.2103 -246.1905)" class="st0" style="display:inline; font-size:96.4157px; letter-spacing:-3;">THE FRIENDLY DEAD CO.</text>
</g>
<g id="Layer_5" class="st3">
	
		<text transform="matrix(0 1 -1 0 -757.6575 -342.4529)" class="st0" style="display:inline; font-size:132.0407px; letter-spacing:-4;">THE FRIENDLY DEAD </text>
</g>
</svg>
