<?xml version="1.0" encoding="utf-8"?>
<!-- Generator: Adobe Illustrator 26.0.3, SVG Export Plug-In . SVG Version: 6.00 Build 0)  -->
<svg version="1.1" xmlns="http://www.w3.org/2000/svg" xmlns:xlink="http://www.w3.org/1999/xlink" x="0px" y="0px"
	 viewBox="0 0 1813.67 1203.57" style="enable-background:new 0 0 1813.67 1203.57;" xml:space="preserve">
<style type="text/css">
	.st0{display:none;}
	.st1{display:inline;fill:#C1272D;}
	.st2{fill:#A11216;}
	.st3{fill:#466B16;}
	.st4{fill:#FFF5D9;}
	.st5{font-family:'Battlefin-BlackItalic';}
	.st6{font-size:100.8155px;}
	.st7{letter-spacing:-1;}
</style>
<g id="Layer_6" class="st0">
	<path class="st1" d="M-1009.17,626.77c6.4,1.46,12.43,5.34,18.75,7.07c4.11,1.13,8.49,2.33,11.44,5.38
		c7.19,7.46,18.27,9.55,26.11,18.45c2.76,3.14,10.12,3.76,13.29,6.5c2.75,2.37,5.08,5.39,8.25,7.23c6.13,3.55,12.28,7.51,19.16,9.35
		c2.98,0.79,6.51,2.14,9.53,2.51c2.18,0.26,4.36,0.09,6.54,0.4c4.26,0.59,7.92,1.94,11.8,4c4.81,2.56,10.04,3.72,15,5.91
		c5.32,2.36,10.23,3.55,15.99,3.07c3.48-0.29,6.16-0.35,9.42-1.65c3.15-1.25,6.22-2.05,9.58-2.74c3.41-0.7,6.89-1.14,10.29-1.86
		c3.27-0.68,4.96-3.39,8.08-4.17c1.58-0.4,3.44-0.14,5.03-0.67c1.62-0.54,3.08-1.68,4.52-2.57c2.66-1.64,4.29-3.54,6.65-5.48
		c2.42-2,6.93-5.54,10.13-5.73c4.01-0.24,7.92,0.25,11.73,1.47c6.46,2.07,13.29,3.61,20.08,4.2c3.51,0.31,6.96,0.05,10.45-0.26
		c2.02-0.18,4.19-0.1,6.17-0.53c2.46-0.54,4.42-1.99,6.73-2.93c8.96-3.64,17.26-8.46,26.16-12.22c4.58-1.94,9.42-2.73,14.17-4.04
		c5.76-1.59,11.94-4.98,17.4-7.5c4.01-1.85,7.8-3.72,12.07-4.93c2.14-0.61,4.1-1.49,6.21-2.16c2.08-0.66,4.33-0.82,6.37-1.62
		c3.71-1.46,7.18-3.31,10.99-4.64c3.49-1.23,6.9-2.67,10.47-3.71c4.07-1.18,7.22-1.78,10.92-3.78c2.15-1.16,3.97-1.45,6.41-1.5
		c5.19-0.11,10.18-0.02,15.21,0.92c3.44,0.64,6.69,2.68,10.19,2.95c1.89,0.14,3.95,0.07,5.85-0.03c5-0.28,10.06-3.66,11.08-8.88
		c0.68-3.49-0.99-8.11-1.38-11.59c-0.5-4.56-0.97-8.96-3-13.1c-1.9-3.88-4.17-7.18-7.41-10.07c-2.73-2.43-5.95-5.7-9.36-7.23
		c-4.69-2.11-8.28-4.72-10.9-9.35c-1.56-2.76-2.27-5.99-4.1-8.6c-1.35-1.93-3.31-3.25-4.76-5.08c-1.43-1.8-2.11-3.55-2.93-5.67
		c-2.15-5.6-4.48-9.18-2.6-15.23c1.46-4.7,4.68-8.38,6.85-12.69c1.35-2.7,1.69-5.62,2.44-8.5c1.21-4.68,4.17-8.07,6.17-12.36
		c1.73-3.71,2.92-7.72,3.25-11.8c0.41-5.02-0.41-10.17-0.41-15.21c0-3.6-3-6.77-5.31-9.41c-3.4-3.88-8.12-6.34-11.54-10.23
		c-1.87-2.12-3.24-4.53-5.26-6.5c-2.8-2.74-5.9-4.41-9.14-6.53c-2.53-1.66-4.81-3.87-7.24-5.72c-2.26-1.72-3.53-3.54-3.83-6.31
		c-0.42-3.8,1.41-6.86,5.6-6.92c3.52-0.05,6.45,2.76,10,3.12c2.32,0.24,4.34,0.08,6.59-0.45c2.73-0.64,6.53-0.23,9.09-1.24
		c1.61-0.64,3.27-1.69,4.86-2.51c3.33-1.71,5.52-4.82,8.56-6.97c2.65-1.87,5.63-3.65,7.59-6.3c1.05-1.42,3.07-4.49,2.8-6.38
		c-0.43-3.01-6.55-6.17-8.49-7.89c-1.69-1.51-3.42-2.99-5.26-4.31c-2.53-1.81-5.29-3.27-7.86-5.05c-3.08-2.14-5.74-4.48-8.66-6.85
		c-5.32-4.32-10.63-8.4-15.62-13.1c-3.11-2.93-6.25-5.7-9.07-8.93c-2.73-3.12-5.23-6.66-8.91-8.74c-5.64-3.19-12.4-5.03-18.26-7.88
		c-3.31-1.61-6.59-3.35-10.05-4.63c-5.53-2.04-10.79-3.48-15.76-6.68c-3.33-2.15-7.6-4.08-10.53-6.75
		c-1.13-1.03-1.17-1.76-1.96-3.15c-1.87-3.31-5.01-6.19-7.4-9.11c-3.32-4.06-5.48-9.1-8.81-12.99c-3.91-4.57-9.87-8.09-14.38-12.03
		c-3.94-3.45-7.75-7.24-12.2-10.05c-3.64-2.31-8.37-2.38-12.51-3.32c-5.49-1.25-10.43,0.52-15.71,1.66
		c-14.54,3.14-27.44-7.47-41.53-8.72c-8.13-0.72-16.36,0.68-24.17,2.73c-4.99,1.31-10.62,1.51-15.72,2.35
		c-5.7,0.94-11.55,1.56-17.32,1.95c-3,0.21-5.12-1.38-7.96-1.87c-7.14-1.21-15.22-1.57-22.5-1.85c-5.08-0.2-7.84,0.9-12.35,3.06
		c-4.13,1.98-8.82,2.39-12.74,4.88c-2.53,1.6-3.45,4.18-4.9,6.63c-2.39,4.03-4.5,4.58-8.4,6.63c-1.89,0.99-3.47,2.43-5.49,3.25
		c-3.49,1.42-7.75,1.92-11.45,2.33c-5.76,0.64-10.57,0.77-16.24,2.5c-7.17,2.18-13.57,2.82-21.07,3c-4.65,0.11-9.22,0.55-13.91,0.51
		c-3.36-0.03-7.4,0.08-10.83-0.5c-1.93-0.33-3.64-1.04-5.62-1.04c-16.19,0-22.79,21.6-19.33,34.55c0.56,2.08,1.28,3.27,2.09,5.11
		c1.56,3.54,1.96,7.42,2.57,11.2c0.88,5.4,1.91,10.88,3.12,16.23c1.61,7.09,5.06,13.82,8.16,20.34c2.93,6.17,7.85,11.64,9.05,18.52
		c0.48,2.74,0.62,5.56,0.98,8.32c0.15,1.13,1,4.15,0.92,5.64c-0.16,3.06-2.62,2.52-5.21,2.29c-3.02-0.27-6.13-0.96-9.05-1.81
		c-2.82-0.83-4.74-2.74-7.52-1.07c-1.77,1.06-3,3.29-4.4,4.74c-0.71,0.73-1.91,1.43-2.5,2.21c-1.43,1.89-2.2,5.05-3.18,7.22
		c-1.55,3.42-2.09,7.3-2.9,10.95c-0.98,4.4-1.92,8.22-1.45,12.77c0.46,4.55,1.16,7.12,3.12,11.26c1.41,2.98,2.36,6.11,3.99,8.99
		c4.67,8.24,7.53,17.33,12.3,25.55c2.13,3.67,4.07,7.11,4.41,11.42c0.32,4.02-1.62,6.83-2.27,10.73
		c-0.96,5.78-2.93,12.33-2.83,18.19c0.1,6.21,3.59,12.18,5.02,18.14c1.39,5.81,4.39,10.28,7.06,15.55
		c1.97,3.89,2.89,8.29,5.28,11.96c2.66,4.08,4.93,6.23,5.53,11.32c0.32,2.72,0.93,5.32,1.42,8c1.03,5.6-1.9,10.48-1.63,15.95
		c0.33,6.68,10.04,7.13,14.74,8.92c7.89,3,15.38,5.08,22.33,10.12c4.61,3.34,9.09,6.5,14.08,9.21c5.08,2.75,7.68,8.13,12.44,11.28
		c5.4,3.58,11.01,5.75,17.05,7.8c2.45,0.83,4.61,1.62,7.14,1.97c1.07,0.15,2.87,0.34,3.95,0.84"/>
</g>
<g id="Layer_7">
	<path class="st2" d="M534.07,680.29c-0.42,6.15-1.22,11.83,1.16,17.6c1.8,4.36,3.64,8.5,6.75,12.08
		c5.57,6.4,12.65,10.86,19.03,16.33c3.1,2.66,6.44,4.96,9.79,7.3c3.32,2.31,6.77,4.33,10.89,4.6c2.57,0.17,5.19,0.31,7.76,0.23
		c3.15-0.1,6.42,0.06,9.36-1.16c2.16-0.9,4.51-1.57,6.62-2.57c2.07-0.98,3.71-2.32,6.02-2.79c2.6-0.53,4.98-0.57,7.39-1.8
		c1.59-0.81,3.14-1.82,4.53-2.94c1.68-1.34,2.91-3.11,4.66-4.38c1.54-1.11,3.24-1.98,4.92-2.84c1.69-0.87,3.08-1.72,4.42-3.08
		c1.66-1.68,2.01-2.19,4.12-2.97c1.26-0.47,2.37-1.31,3.71-1.49c1.77-0.24,3,0.62,4.5,1.39c2.1,1.09,4.33,1.18,6.46,2.11
		c2.28,1,3.98,2.11,6.51,2.47c3.01,0.42,5.26-0.94,7.62-2.63c2.41-1.73,3.5-5.35,4.54-8c2.89-7.33,3.64-15.31,7.82-22.11
		c1.85-3,3.57-6.09,5.49-9.04c2.31-3.55,5.1-6.74,7.26-10.4c4.31-7.31,9.62-13.84,14.3-20.91c4.2-6.35,6.33-13.8,9.67-20.62
		c2.99-6.09,6.73-11.62,8.72-18.12c0.94-3.07,2.74-6.75,0.73-9.91c-0.86-1.36-2.72-1.9-3.64-3.33c-0.78-1.22-0.4-2.19,0.22-3.53
		c2.15-4.62,6.49-8.02,9.3-12.24c3.05-4.57,5.96-9.15,7.29-14.53c1.44-5.79,0.42-11.1-1.21-16.77c-0.75-2.6-1.86-5.07-2.83-7.6
		c-1.86-4.87-3.44-8.86-6.6-13.1c-2.84-3.81-4.36-8.46-7.18-12.35c-2.11-2.92-4.42-5.77-6.82-8.47c-1.6-1.8-3.35-4.05-5.46-5.28
		c-4.63-2.72-13.04-1.64-18.03-0.11c-5.25,1.61-10.21,4.3-14.74,7.35c-2.11,1.42-4.4,2.76-6.28,4.47c-2.39,2.19-3.94,5.45-5.27,8.36
		c-1.37,3.01-2.58,6.08-3.88,9.12c-1.89,4.43-1.91,9.76-2.08,14.48c-0.27,7.96,0.56,15.99-0.9,23.87c-1.63,8.84-4.78,17-8.42,25.17
		c-3.47,7.8-8.93,14.35-15.66,19.55c-3.51,2.72-7.04,5.65-11.12,7.49c-3,1.36-6.26,2.05-9.27,3.37c-3.52,1.54-6.69,3.75-10.11,5.47
		c-3.76,1.89-7.77,3.39-11.64,5.02c-4.1,1.73-8.46,3.2-12.35,5.37c-3.75,2.09-7.36,4.47-11.08,6.62
		c-11.43,6.6-24.19,11.64-33.48,21.37c-3.16,3.31-2.27,9.13-2.88,13.43c-0.21,1.47-1.26,4.22-0.51,5.51
		C534.47,685.29,534.72,685.19,534.07,680.29z"/>
	<path class="st2" d="M594.99,602.06c-3.93,4.68-8.41,9.44-6.27,16.06c1.14,3.52,6.23,6.26,9.44,7.36
		c5.03,1.72,9.02,0.49,13.74-1.37c4.47-1.76,9.14-0.21,13.35-2.7c4.26-2.52,8.81-6.22,12.13-9.89c4.03-4.47,8.69-8.62,12.17-13.56
		c3.55-5.03,5.66-10.72,7.87-16.44c2.38-6.17,3.11-12.35,3.48-18.93c0.3-5.28-1.19-11.13-4.65-15.22c-2.11-2.5-5.42-5.34-8.77-5.83
		c-5.11-0.75-7.64,2.86-9.72,7.04c-1.08,2.16-1.83,4.41-2.54,6.71c-1.1,3.54-2.4,6.84-3.93,10.21c-2.8,6.17-5.2,12.54-8.43,18.51
		c-2.1,3.89-5.45,6.09-9,8.46c-3.59,2.4-7.83,3.28-11.91,4.33c-1.82,0.47-3.23,0.93-4.58,2.29c-0.45,0.46-3.17,4.44-2.58,4.79
		C595.41,602.58,595.87,601.02,594.99,602.06z"/>
	<path class="st2" d="M555.99,635.92c-3.21,5.38-6.32,11.01-10.15,16.01c-2.32,3.03-5.23,5.78-7.82,8.59
		c-2.75,2.98-5.28,6.66-9.33,7.84c-2.83,0.82-6.71,2.23-9.04-0.38c-1.63-1.83-1.75-4.9-2.05-7.19c-0.59-4.44-1-8.64-1.76-13.05
		c-1.18-6.81-0.68-13.96-0.81-20.85c-0.2-10.57,2.93-20.42,5.57-30.54c0.63-2.41,1.13-4.81,1.87-7.19c1.3-4.18,3.42-8.33,5.25-12.31
		c3.97-8.62,7.75-17.66,14.57-24.44c3.39-3.37,7.25-6.1,10.79-9.3c1.98-1.8,3.72-3.61,5.43-5.67c1.81-2.18,3.74-5,6.2-6.43
		c1.87-1.08,3.29-1.64,5.48-1.61c1.8,0.03,2.76,0.22,4.72-0.36c2.35-0.71,4.67-1.91,6.88-2.93c1.89-0.87,3.52-1.52,4.74-3.28
		c1.75-2.54,1.57-5.96,2.46-8.83c1.03-3.3,3.24-6.48,5.42-9.12c1.5-1.81,2.85-3.35,4.95-4.34c4.96-2.33,9.09-6.05,14-8.49
		c5.24-2.6,11.23-2.71,16.71-4.71c6.08-2.22,11.69-4.96,17.96-6.66c5.97-1.62,11.51-4.45,17.2-6.82c5.28-2.21,10.99-4.59,15.9-7.59
		c2.84-1.74,5.36-4.46,7.8-6.74c0.5-0.47,1.81-2.24,2.6-2.28c0.54-0.03,1.16,0.91,1.43,1.29c1.65,2.29,2.87,5.11,3.17,7.9
		c0.29,2.66,0.42,5.61,0.3,8.3c-0.21,4.97-1.75,8.69-4.22,12.96c-2.96,5.13-5.79,9.86-9.79,14.28c-5.37,5.92-11.4,11.57-17.53,16.71
		c-5.26,4.41-10.41,9.07-15.88,13.22c-2.34,1.78-5.09,3.18-7.3,5.18c-1.72,1.56-3.09,3.93-4.42,5.86
		c-3.08,4.47-5.23,9.18-7.62,14.04c-1.79,3.63-2.56,7.91-3.86,11.76c-2.87,8.45-7.22,16.82-13.63,23.18
		c-3.5,3.48-8.68,4.73-13.19,6.39c-5.41,1.98-9.58,5.08-13.83,8.96c-3.07,2.8-6.06,5.9-9.52,8.22c-2.02,1.35-4.16,2.37-6.27,3.56
		c-4.44,2.48-8.44,5.61-11.72,9.5c-1.79,2.13-3.73,4.16-4.03,7.02C553.45,637.23,553.59,639,555.99,635.92z"/>
	<path class="st2" d="M453.47,584.58c3.38,4.75,6.46,9.65,10.99,13.36c2.62,2.15,5.24,4.41,8.07,6.29
		c4.21,2.79,9.55,3.73,14.35,5.21c4.28,1.32,9.25,2.53,13.73,2.92c4.36,0.37,6.6-1.21,9.03-4.78c1.82-2.68,3.81-5.19,5.03-8.2
		c1.85-4.54,3.16-9.41,5.35-13.8c2.21-4.42,5.51-7.8,7.48-12.43c1.47-3.44,2.41-7.01,3.34-10.64c0.59-2.31,1.68-4.95,1.5-7.34
		c-0.57-7.71-11.87-8.88-17.81-8.5c-2.72,0.17-5.46,1.83-7.88,2.98c-2.48,1.18-5.04,2.24-7.42,3.61
		c-4.96,2.85-9.39,6.03-13.45,10.08c-1.81,1.81-3.51,3.98-5.54,5.55c-1.53,1.18-3.28,2.06-4.86,3.17c-1.5,1.05-2.93,2.25-4.55,3.11
		c-1.84,0.98-4.11,1.32-6.03,2.14c-1.8,0.77-3.58,1.75-5.23,2.8c-1.1,0.7-2.03,1.58-2.91,2.54c-0.72,0.78-1.43,2.1-2.51,2.39
		C454.82,585.11,455.49,585.05,453.47,584.58z"/>
	<path class="st2" d="M565.36,521.38c2.68-0.22,5.37-0.45,8.05-0.67c1.19-0.38,2.39-0.77,3.58-1.15c1.67-1.26,3.26-4.87,4.35-6.59
		c1.92-3.01,3.7-6.11,5.64-9.11c1.24-1.92,2.84-3.62,4.01-5.56c3.17-5.22,3.2-11.27-1.25-15.72c-1.79-1.8-3.64-3.28-6.08-4.05
		c-2.99-0.95-6.12,0.15-8.87,1.52c-2.15,1.07-3.86,2.21-5.36,4.13c-2.41,3.08-4.01,7.28-5.74,10.76
		c-2.63,5.28-5.68,10.97-5.78,17.02c-0.05,2.97,0.58,5.85,1.3,8.72c0.15,0.59,0.32,2.23,1.02,2.54
		C561.38,523.73,562.78,521.59,565.36,521.38z"/>
	<path class="st2" d="M609.49,445.24c-0.31,6.5-2.15,14.48,2.14,20.22c1.64,2.19,4.92,4.96,7.61,5.91c1.82,0.42,3.37-0.12,4.64-1.62
		c2.23-1.64,4.18-3.57,5.85-5.78c2.13-3.05,3.93-7.22,4.67-10.87c1.82-8.99-8.47-12.48-15.64-12.4c-4.44,0.04-7.16,1.24-9.67,5.01
		C607.08,448.7,606.72,449.88,609.49,445.24z"/>
	<path class="st2" d="M529.42,371.16c0.39-5.41-0.39-14.06,3.55-18.87c2.05-2.5,5.24-3.47,8.32-3.8c2.86-0.31,5.49-0.69,8.25-1.54
		c1.94-0.6,4.24-0.61,6.04-1.47c3.02-1.44,5.42-5.89,7.72-8.22c4.03-4.07,7.46-7.97,10.64-12.82c2.67-4.07,5.3-7.31,9.11-10.44
		c3.43-2.82,6.56-5.97,9.96-8.81c5.32-4.44,12.43-9.35,19.46-10.4c4.13-0.61,6.06,2.86,7.06,6.45c0.52,1.87,0.77,3.81,1.17,5.71
		c0.73,3.47,1.91,6.48,3.44,9.64c1.92,3.95,2.79,7.91,4.14,12.03c1.47,4.5,4.69,8.38,6.66,12.69c2.05,4.48,3.36,9.23,5.32,13.74
		c1.91,4.41,4.35,8.58,6.58,12.83c2.22,4.23,4.27,8.57,7.06,12.46c2.84,3.96,6.11,7.73,9.69,11.05c3.3,3.06,6.05,6.11,8.66,9.8
		c1.87,2.64,4.32,4.74,6.38,7.23c2.43,2.94,5.17,5.85,7.28,9.02c2.23,3.35,3.27,7.31,5.08,10.88c1.4,2.76,2.88,5.42,3.07,8.6
		c0.18,3-1.13,5.6-2.91,7.94c-3.26,4.29-7.22,6.64-11.92,9.06c-2.79,1.44-6.01,1.31-8.73-0.27c-1.31-0.76-2.97-1.95-3.89-3.18
		c-0.97-1.3-0.72-2.77-1.16-4.27c-0.96,1.85-1.35,4.07-2.17,5.98c-1.4,3.23-3.01,6.39-4.65,9.51c-1.84,3.51-3.93,6.12-6.87,8.74
		c-2,1.78-4.2,2.95-6.68,3.9c-1.24,0.48-3.59,1.71-5.01,1.08c-1.14-0.5-1.59-1.94-1.95-2.99c-3.48-10.31-1.18-21.59-1.03-32.15
		c0.07-4.67,1.34-8.98,1.85-13.59c0.5-4.51-0.74-8.97-0.39-13.49c-1.25,3.18-1.36,6.98-2.18,10.3c-0.74,2.99-1.27,6.07-2.56,8.89
		c-0.93,2.03-2.36,4.83-5.1,3.76c-2.8-1.09-4.09-6.07-4.97-8.5c-1.14-3.12-1.81-6.18-3.22-9.19c-1.62-3.45-3.22-6.79-5.05-10.14
		c-2.24-4.1-4.55-7.62-7.64-11.15c-2.5-2.85-5-7.09-8.31-8.99c-2.8-1.61-6.5-2.07-9.58-3.1c-3-1-6.01-1.37-9-2.49
		c-1.98-1.03-4.09-1.64-6.31-1.83c-1.86,0.01-3.73,0.01-5.59-0.02c-3.43-0.3-6.95-0.57-10.36-0.99c-4.25-0.52-8.66-1.65-12.85-2.54
		c-2.94-0.62-5.6-1.95-8.54-2.59c-3.21-0.7-7.13-0.92-9.02-4.07C528.74,370.49,529.24,370.49,529.42,371.16z"/>
	<path class="st2" d="M705.77,477.12c-1.07-4.4-3.04-9.58-2.84-14.16c0.07-1.51,0.29-3.03,0.47-4.53c0.37-3.08,0.21-6.19,0.24-9.29
		c0.04-3.63-0.19-6.87-1.22-10.4c-1.09-3.74-2.51-7.4-3.81-11.08c-1.3-3.66-3.5-6.69-5.84-9.75c-3.42-4.47-6.38-9.03-10.32-13.08
		c-2.26-2.32-4.6-4.32-6.31-7.17c-1.27-2.12-2.31-4.45-3.34-6.69c-2.67-5.83-6.43-11.11-10.13-16.32
		c-3.44-4.85-7.05-9.06-11.69-12.81c-2-1.62-3.77-3.1-5.47-5.05c-2.48-2.85-4.18-6.09-5.94-9.42c-2.34-4.43-5.73-7.93-8.65-11.97
		c-3.51-4.85-5.46-9.08-6.08-14.95c-0.53-4.99,0.23-9.36,1.34-14.2c1.12-4.83,1.98-9.93,4.19-14.41c1.78-3.61,4.49-6.84,7.28-9.72
		c2.78-2.87,5.97-4.44,9.24-6.64c2.83-1.89,5.25-4.52,8.6-5.47c2.26-0.64,4.47-0.61,6.76-0.15c1.62,0.32,4.19,0.87,5.55,2
		c1.42,1.19,2.23,3.89,3.15,5.55c1.26,2.28,0.7,5.13,0.61,7.64c-0.12,3.45-0.05,6.87-0.36,10.32c-0.8,8.8-1,18.3,0.55,27
		c1.83,10.26,4.64,20.08,8,29.94c2.44,7.17,5.06,14.46,8.57,21.17c3.09,5.92,7.96,10.63,11.01,16.59c1.11,2.17,2.08,4.44,3.24,6.58
		c1.59,2.93,3.79,5.15,5.83,7.7c2.98,3.72,5.69,7.73,7.77,12.02c1.53,3.15,2.88,6.41,3.71,9.82c1.24,5.15,1.24,10.57,1.36,15.85
		c0.1,4.69,0.14,9.27-0.75,13.9c-0.87,4.52-1.09,9.11-2.36,13.54c-0.62,2.18-1.33,4.32-1.81,6.54c-0.29,1.36-0.43,2.82-1.01,4.09
		c-0.85,1.84-2.75,3.11-4.45,4.16c-2.98,1.85-5-0.25-6.05-3.13C704.32,479.77,702.62,475.54,705.77,477.12z"/>
	<path class="st2" d="M552.57,343.66c5.37-3.56,11.9-6.57,15.28-12.31c1.95-3.33,4.31-6.37,6.29-9.66c1.08-1.8,2.39-3.95,1.46-6.09
		c-1.05-2.41-5.26-4.97-7.1-6.42c-2.84-2.23-5.13-5.38-8.04-7.44c-3.54-2.5-9.34-3.39-13.53-3.76c-4.59-0.41-9.29,0.44-13.92,0.41
		c-2.32-0.01-5.34-0.47-7.11,1.44c-2.22,2.4-0.83,6.91,0.2,9.32c1.45,3.38,3.43,6.23,6.64,8.01c4.95,2.75,8.86,6.37,13.47,9.57
		c2.21,1.54,3.81,3.77,5.59,5.77C554.71,335.79,554.14,339.14,552.57,343.66z"/>
	<path class="st2" d="M543.44,342.47c-1.22-2.82-3.39-9.23-5.58-12.5c-1.17-1.75-3.02-2.71-4.65-3.96c-3.12-2.4-6.51-5.03-8.64-8.38
		c-1.09-1.71-1.92-3.25-3.5-4.52c-2.05-1.65-4.94-2.34-7.4-3.14c-4.02-1.31-8.92-3.55-13.2-3.24c-3.72,0.27-5.41,2.1-7.23,5.12
		c-1.68,2.8-3.35,4.15-5.8,6.08c-1.11,0.87-1.55,2.09-2.15,3.32c-1.44,2.94-2.76,5.97-3.96,9.01c-1.1,2.78-1.94,5.56-2.61,8.46
		c-0.34,1.46,0,2.4-1.26,2.64c-2.58,0.47-4.41-2.8-5.12-4.69c-1.04-2.77-1.69-4.19-4.16-5.96c-2.39-1.71-5.76-1.25-7.88,0.79
		c-1.08,1.05-1.85,2.37-3.02,3.39c-2.01,1.76-4.52,2.62-6.81,3.95c-2.13,1.24-4.05,2.96-6.08,4.37c-1.71,1.19-3.19,2.55-4.82,3.83
		c-3.02,2.36-6.58,3.77-9.99,5.44c-19.39,9.48-44.82,18.11-52.4,40.6c-2.02,6-1.61,13.66-1.69,19.89
		c-0.08,7.14,1.81,12.77,3.64,19.55c1.64,6.08,2.84,13.47,6.26,18.87c2.7,4.26,6,6.47,10.57,8.15c3.63,1.34,7.31,1.83,11.12,2.38
		c3.75,0.54,5.7-0.93,8.56-3.17c8.17-6.42,10.24-17.64,16.18-25.86c3.77-5.22,10.19-5.75,15.62-8.29c3.79-1.77,6.21-4.58,9.34-7.32
		c1.42-1.24,2.92-2.21,4.39-3.38c2.94-2.33,5-5.33,7.09-8.4c3.06-4.5,6.62-9.3,11.09-12.54c3.54-2.57,7.75-3.84,11.26-6.49
		c3.75-2.84,7.66-5.02,11.79-7.34c3.51-1.97,7.43-3.83,11.52-4.04c8.79-0.44,13.01-8.78,17.98-14.84c2.21-2.69,3.28-6.09,5.77-8.55
		C539.85,349.58,541.48,346.67,543.44,342.47z"/>
	<path class="st2" d="M392.62,359.44c2.29-6.82,5.16-13.39,8.6-19.7c1.95-2.78,4.01-5.47,6.18-8.08
		c4.94-5.81,10.99-10.49,16.03-16.2c3.84-4.35,7.03-8.97,11.32-12.91c4.07-3.74,8.55-6.96,12.58-10.75
		c2.26-2.12,4.98-4.59,8.39-3.86c2.5,0.54,3.45,3.94,4.56,5.91c2.37,4.23,4.27,7.99,4.76,12.91c0.34,3.39,0.79,6.98,0.95,10.38
		c-0.11,4.02-1.09,7.83-2.93,11.43c-1.65,3.85-3.56,7.56-5.71,11.15c-2.51,3.42-6.41,5.46-10.08,7.41
		c-5.44,2.88-11.06,4.93-16.76,7.19c-5.25,2.08-9.65,4.02-15.41,4.02c-3.41,0-6.81-0.14-10.22-0.11c-3.2,0.03-6.49,0-9.4,1.52
		c-1,0.52-1.72,1.26-2.93,1.24C392.83,360.87,393.12,360.75,392.62,359.44z"/>
	<path class="st2" d="M428.28,447.17c-0.66,7.75-1.01,15.47-1.6,23.2c-0.49,6.45-1.13,13.35,0.08,19.76
		c1.11,5.82,2.63,11.83,4.23,17.54c0.5,2.33,1.33,4.53,2.49,6.6c1.22,0.72,2.54,1.18,3.96,1.37c5.7,1.7,10.37,2.39,16.39,1.82
		c4.04-0.39,9.33-1.58,11.37-5.65c2.37-4.73,3.19-9.88,3.14-15.06c-0.04-3.28-0.19-6.64,0.39-9.87c0.71-3.95,2.33-5.09,5.2-7.48
		c2.77-2.3,4.25-6.04,6.83-8.67c3.07-3.12,6.22-6.12,9.42-9.1c5.36-5,9.28-11.22,16.8-13.22c2.92-0.78,5.79-0.69,8.54,0.54
		c1.59,1.04,3.32,1.76,5.18,2.15c1.91,0.01,3.82,0.11,5.72,0.29c3.63,0.76,12.21,7.37,14.43,1.5c2.09-5.53,1.19-12.13-1.79-17.1
		c-1.33-2.22-2.91-4.4-4.73-6.23c-2.07-2.08-3.3-4.68-5.99-6.11c-7.88-4.18-18.07-4.31-26.73-3.93c-2.95,0.38-5.9,0.52-8.87,0.41
		c-2.72-0.65-5.46-1.14-8.24-1.48c-3.87,0.06-7.51,2.16-11.34,2.66c-5.08,0.67-10-0.19-15.05-0.07c-5.05,0.12-10.35,2.4-14.33,5.49
		c-2.47,1.91-3.47,4.67-6.07,6.4c-3.16,2.1-4.63,3.96-6.97,7.1c-2.03,2.72-4.84,5.17-4.89,8.82
		C425.84,451.3,427.29,452.06,428.28,447.17z"/>
	<path class="st2" d="M475.93,407.12c3.11,2.67,5.89,5.77,9.71,7.33c0.75,0.31,1.5,0.61,2.24,0.92c1.24-0.56,2.53-0.91,3.87-1.07
		c2.93-0.3,5.92,0.41,8.92,0.21c6.89-0.45,14.85-1.21,21.32,1.57c2.6,1.12,4.76,2.57,7.48,3.34c2.53,0.72,4.38,2.24,6.69,3.41
		c1.39,0.7,3.04,0.78,4.06,2.01c1.95,2.38,1.08,6.64,1.4,9.43c0.84,7.31,1.8,14.27,1.76,21.7c-0.04,7.54-0.15,14.91-0.84,22.43
		c-0.42,4.61-0.34,9.19-0.36,13.82c-0.03,4.9-0.79,9.76-0.77,14.64c0.02,3.52,0.24,6.97,0.12,10.49c-0.09,2.35-0.76,6.11,2.02,7.16
		c3.1,1.16,5.74-1.23,7.29-3.65c2.66-4.15,5.17-9.12,7.07-13.68c2.3-5.52,4.03-11.34,6.22-16.91c2.2-5.61,3.22-12.06,6.24-17.3
		c2.44-4.22,5.97-7.92,8.84-11.87c2.35-3.24,4.07-6.66,5.84-10.24c2.05-4.14,5.02-6.05,8.68-8.55c1.25-0.85,2.33-1.83,3.81-2.21
		c1.73-0.45,3.06,0.18,4.85,0.02c2.22-0.2,4.56-0.86,6.78-1.19c3.32-0.49,6.08-1.98,7.65-5.06c1.88-3.71,1.67-8.22,1.71-12.3
		c0.04-5.07-1.18-9.53-4.91-13.13c-3.56-3.44-7.85-6.13-11.55-9.44c-3.49-3.11-6.2-6.17-10.33-8.34
		c-5.24-2.75-10.06-5.47-14.74-9.12c-5.59-4.35-11.22-7.04-17.91-9.29c-5.46-1.83-10.51-2.49-16.22-1.52
		c-3.08,0.53-6.17,0.83-9.24,1.36c-5.99,1.02-11.87,3.39-17.65,5.27c-4.4,1.43-8.98,2.55-13.23,4.39c-1.74,0.75-3.34,1.75-5.16,2.34
		c-1.24,0.4-2.64,0.51-3.81,1.14c-2.64,1.42-4.81,3.68-7.49,5.13c-3.62,1.96-6.68,4.27-8.88,7.83c-1.13,1.83-2.88,5.69-2.2,8
		C476.31,406.66,477.48,406.84,475.93,407.12z"/>
	<path class="st2" d="M474.69,488.47c-0.19,6.18,0.39,12.27,1.73,18.27c1.58,1.43,3.29,2.69,5.12,3.79c3.02,2.06,5.9,3.94,9.49,4.91
		c3.79,1.02,5.97-0.03,9.39-1.26c1.91-0.52,3.82-1.05,5.73-1.6c0.76-0.38,1.48-0.84,2.15-1.37c3.46-1.12,4.9,1.77,4.92,4.81
		c0.02,5.61,4.28,5.61,9.02,6.54c2.13,0.42,4.81,0.91,6.99,0.47c3.57-0.72,6.16-3.93,8.13-6.74c2.98-4.26,5.02-9.77,5.66-14.95
		c0.57-4.64,0.51-9.38,0.16-14.03c-0.3-3.96-0.66-6.44-4.74-7.64c-4.02-1.18-6.92,0.4-10.88,0.09c-2.48-2.86,1.16-9.38,1.5-12.63
		c0.33-3.1,0.06-6.74-0.67-9.74c-0.55-2.25-1.92-2.22-3.45-3.59c-1.93-1.72-2.36-2.48-4.78-3.65c-3.38-1.63-6.57-3.26-10.34-3.72
		c-2.28-0.28-4.97-0.46-7.21,0.27c-3.34,1.08-5.28,4.1-8.35,5.58c-2.43,1.17-5.12,1.12-7.19,3.12c-2.11,2.04-3.21,5.19-4.39,7.78
		c-2.77,6.11-4.76,12.02-6.04,18.62c-0.37,1.93-0.45,3.82-0.72,5.78c-0.22,1.6-1.33,3.89-0.51,5.37
		C476.19,493.15,476.75,492.84,474.69,488.47z"/>
	<path class="st2" d="M490.13,545.63c-3.91,5-5.76,7.78-10.41,11.14c-2.92,2.11-6.13,4.3-9.36,5.88c-2.45,1.2-4.62,2.43-6.57,4.36
		c-1.71,1.69-3.27,3.56-5.55,4.43c-1.52,0.57-2.96,0.62-4.45,1.29c-2.09,0.94-3.8,2.74-5.59,4.13c-2.51,1.94-4.68,4.11-6.69,6.56
		c-4.14,5.06-7.79,10.92-10.22,17.01c-0.72,1.81-0.96,3.66-1.5,5.5c-0.85,2.88-3.47,3.34-6.31,2.76
		c-4.91-0.99-8.79-6.09-11.12-10.08c-1.85-3.16-3.18-6.64-5.27-9.67c-1.77-2.57-4.03-4.12-6.17-6.23c-3.74-3.7-6.7-9.3-8.84-14.05
		c-1.75-3.89-2.07-8.36-3.07-12.46c-0.75-3.08-1.74-6.08-2.08-9.24c-0.51-4.81-0.55-10.72,0.93-15.32c0.62-1.93,1.89-3.49,2.51-5.41
		c0.48-1.48,0.53-3.05,0.92-4.56c0.72-2.82,2.26-5.61,2.78-8.45c0.25-1.37,0.44-0.91,0.22-2.3c-0.45-2.8-1.69-5.48-1.98-8.43
		c-0.46-4.69-0.73-9.44-0.95-14.14c-0.11-2.34-0.58-5.32,0.09-7.59c0.56-1.87,1.67-2.55,3.13-3.82c4.88-4.23,14.9-13.3,21.58-6.65
		c2.86,2.84,3.4,8.28,4.11,12.02c0.39,2.07,0.69,4.05,0.77,6.18c0.02,0.52-0.18,2.89,0.16,3.87c0.4,1.15,1.58,2.23,2.03,3.43
		c0.81,2.14,0.8,4.54,1.06,6.79c0.47,4.07,1.75,8.43,3.16,12.25c0.63,1.71,1.2,2.97,2.92,3.42c0.54,0.14,1.46-0.04,2.09,0.09
		c1.87,0.38,3.69,1.23,5.59,1.64c9.32,2.03,18.49-0.56,27.92-0.12c4.39,0.2,7.87,0.7,12.04-1.04c3.25-1.36,5.25-2.56,8.9-2.6
		c5.88-0.07,10.86,1.6,16.57,2.72c1.49,0.3,3.13,0.4,4.53,1.04c2.15,0.98,3.7,3.05,5.52,4.47c1.27,0.99,2.62,1.95,4.02,2.75
		c2.27,1.3,4.01,1.49,6.49,2c4.12,0.85,10.91,6.85,5.47,10.78c-3.7,2.67-9.73,2.21-14.01,2.12c-3.91-0.08-7.7-0.9-11.58-1.15
		c-3.12-0.2-6.03-0.31-8.97,0.9c-3.38,1.38-5.56,3.95-8.18,6.31C487.3,547.65,487.89,547.2,490.13,545.63z"/>
	<path class="st2" d="M313.05,621.69c-1.54-5.63-3.29-11.12-4.04-16.92c-0.41-3.18-0.39-5.8-0.37-8.95
		c0.04-5.35-0.32-10.53,0.18-15.88c0.18-1.98,0.25-4.81,1.08-6.7c0.38-0.86,1.21-1.58,1.74-2.34c0.86-1.21,1.48-2.43,2.13-3.78
		c1.84-3.85,3.54-7.36,6.03-10.83c4.95-6.89,11.47-15.54,20.35-17.03c7.27-1.22,15.57-4.42,22.99-2.21
		c3.46,1.03,6.34,3.32,9.62,4.73c3.08,1.33,5.78,2.95,8.1,5.46c4.21,4.55,5.4,11.96,5.5,18.02c0.07,4.43-1.19,8.8-1.16,13.24
		c0.02,3.79,4.88,6.59,7.93,8.18c2.7,1.41,4.53,2.54,6.71,4.71c2.52,2.52,4.97,4.95,7.05,7.86c1.1,1.53,2.37,3.02,3.39,4.6
		c1.45,2.22,1.85,5.08,3.36,7.23c1.95,2.77,5.5,1.86,7.97,0.24c1.78-1.17,2.83-3.03,4.48-4.35c2.33-1.86,4.36-2.77,5.96-5.43
		c5.69-9.42,16.71-16.08,27.85-11.69c6.97,2.74,12.6,7.88,18.42,12.4c2.76,2.15,5.48,4.36,8.21,6.54c2.73,2.18,5.73,3.91,8.47,6.05
		c3.97,3.1,8.09,5.99,11.37,9.86c4.16,4.91,4.51,13.43,5.76,19.54c0.77,3.75,1.29,7.54,2.06,11.29c0.47,2.28,0.98,4.4,1.03,6.74
		c0.09,3.91-0.06,7.83-0.04,11.74c0.01,2.22,0.92,3.69,2.27,5.44c1.68,2.16,3.71,3.42,6.02,4.86c2.44,1.52,4.13,3.42,5.58,5.9
		c3.38,5.78,5.15,12.08,7.4,18.34c4.74,13.24,10.91,31.18-4.77,39.46c-2.86,1.51-5.47,3.73-8.7,4.31c-3.03,0.54-6.16,0.86-9.22,1.31
		c-3.9,0.58-7.6-0.51-11.5-0.24c-3.77,0.26-7.4,1.58-11.17,1.8c-4.05,0.24-7.87-1.43-11.93-1.51c-2.76-0.05-5.54,0.27-8.23-0.55
		c-1.9-0.58-3.9-1.07-5.77-1.71c-3.44-1.18-5.72-4.01-8.06-6.65c-3.2-3.62-4.25-8.13-2.68-12.73c0.3-0.89,1.12-2.3,0.55-3.16
		c-1.32-1.99-6.63,0.59-7.84,1.13c-5.38,2.39-9.58,5.6-15.54,6.53c-3.47,0.54-6.32,1.26-9.53,2.7c-2.65,1.19-5.4,1.64-8.11,2.6
		c-2.24,0.79-4.35,1.81-6.65,2.44c-1.8,0.49-3.64,0.68-5.42,1.22c-1.29,0.39-2.44,1.07-3.7,1.53c-2.54,0.93-5.14,1.14-7.8,1.34
		c-9.15,0.71-18.08,2.7-27.2,3.57c-2.82,0.27-5.25,0.41-7.95-0.57c-2.77-1-6.2-1.94-8.66-3.61c-4.08-2.78-4.21-9.49-4.63-13.88
		c-0.74-7.85-0.44-15.76-0.49-23.63c-0.05-6.94-0.54-13.92-1.05-20.84c-0.33-4.37-1.32-8.39-2.19-12.66
		c-1.59-7.73-2.31-14.44-0.24-22.05c1.2-4.41,1.69-9.07,3.1-13.41c0.69-2.11,1.84-6.53,4.13-7.42c-2.46,2.95-6.7,4.96-10.68,4.94
		c-2.86-0.01-5.92-0.72-8.72-1.22c-3.79-0.69-5.17-2.19-7.62-4.97C313.55,627.39,308.01,619.21,313.05,621.69z"/>
	<path class="st2" d="M312.03,542.44c-0.12-4.84-1.43-9.28-3.93-13.31c-1.8-2.55-2.52-5.39-2.15-8.51
		c0.24-6.38,2.12-13.69,4.86-19.41c1.54-3.23,3.58-6.19,5.16-9.4c1.22-2.55,2.38-5.12,3.5-7.71c0.75-1.74,1.36-3.53,1.83-5.37
		c0-2.07-1.62-4.27-2.14-6.32c-0.81-3.25-1.19-6.73-1.34-10.07c-0.15-3.16-0.18-6.4-0.14-9.56c0.07-5.23,2.84-9.4,5.8-13.46
		c2.6-3.55,5.08-7.18,7.66-10.74c2.86-3.95,7.11-6.39,11.01-9.21c4.06-2.94,8.32-5.77,12.87-7.92c1.53-0.72,3.1-1.29,4.8-0.77
		c1.13,0.47,2.13,1.13,3.01,1.98c1.56,0.87,3.2,1.5,4.94,1.91c2.72,1.28,3.07,3.74,3.79,6.41c0.82,3.06,0.97,6.22,1.64,9.31
		c1.11,5.13,2.79,10.31,4.38,15.31c2.58,8.12,5.75,16.1,8.13,24.27c2.58,8.84-0.96,18.83-1.55,27.72c-0.55,8.28,0.48,15.86,2.05,24
		c0.99,5.14,1.44,11.47-1.33,16.11c-1.95,3.26-2.99,4.69-6.66,5.67c-4.75,1.27-8.86,2.64-13.87,2.29
		c-4.17-0.29-8.31-0.89-12.48-1.18c-4.31-0.29-8.74-0.36-13.01-1.03c-6.12-0.96-12.17-2.54-18.37-1.47
		c-1.47,0.25-2.57,0.91-3.93,1.23c-1.17,0.28-2.8-0.49-4.05-0.43C312.69,542.79,312.9,542.8,312.03,542.44z"/>
</g>
<g id="Layer_10">
</g>
<g id="Layer_8">
	<path class="st3" d="M589.77,305.6c-7.69-3.05-15.63-5.24-21.25-11.57c-4.27-4.81-6.98-11.77-7.53-18.1
		c-0.54-6.12-0.36-12.53-0.16-18.68c0.13-3.77,0.9-7.42,1.6-11.11c0.67-3.57,0.85-6.57,1.17-10.15c0.69-7.61,2.92-15.12,4.59-22.56
		c1.84-8.19,2.41-16.46,3.63-24.76c0.66-4.47,1.25-8.94,1.77-13.43c0.27-2.35,0.62-4.64,0.36-7c-0.31-2.75-1.15-6.12-0.43-8.85
		c4.39,1.16,7.46,4.36,11.01,7.03c9.01,6.77,18.91,12.34,28.35,18.51c5,3.27,9.76,7.04,15.05,9.82c4.8,2.52,10.08,3.51,14.8,6.29
		c4.71,2.77,9,6.15,13.54,9.16c3.37,2.23,6.3,4.48,9.16,7.38c8.04,8.16,17.95,14.36,24.45,23.94c4.23,6.23,7.98,13.14,11.37,19.85
		c3.53,6.99,6.29,13.96,7.63,21.7c1.31,7.53,2.09,15.11,3.15,22.67c0.94,6.76,2.84,13.17,2.87,20.03c0.02,4.15-0.72,8.49-1.16,12.63
		c-0.33,3.09-0.58,6.16-1.26,9.21c-1.07,4.76-2.13,9.52-3.24,14.27c-0.75,3.18-1.19,6.13-3.75,8.3c-0.92,0.78-2.17,1.9-3.43,1.96
		c-1.23,0.06-1.71-0.18-2.67-1.22c-1.77-1.91-2.4-4.91-4-6.98c-1.33-1.72-2.87-2.43-4.54-3.8c-4.9-4.04-6.25-10.7-7.11-16.75
		c-0.58-4.08-0.5-8.23-1.38-12.27c-0.54-2.49-1.39-4.81-2.21-7.21c-1.78-5.23-1.58-11.41-1.17-16.88c0.39-5.25,1.33-10.36,1.6-15.6
		c0.1-1.88,0.4-3.76,0.22-5.64c-0.3-3.16-1.4-6.23-1.84-9.39c-0.16-1.17-0.12-2.41-1.07-3.3c-0.58-0.53-1.68-0.75-2.34-1.19
		c-1.94-1.26-2.44-3.41-4.08-4.99c-1.91-1.84-4.98-3.25-7.32-4.43c-2.6-1.31-5.37-0.95-8.2-1.21c-2.9-0.27-4.95,1.18-7.55,2.36
		c-1.84,0.83-4.16,1.38-5.96,2.39c-2.61,1.47-4.39,3.99-6.2,6.3c-2.39,3.05-4.8,5.93-6.54,9.42c-1.31,2.63-2.69,5.23-4.1,7.81
		c-1.74,3.16-3.65,7.14-6.84,9.1c-5.76,3.53-12.06,2.43-18.25,4.04c-2.4,0.62-4.96,1.2-7.44,1.32c-1.63,0.08-3.59-0.39-5.11,0.25
		C588.31,304.45,588.71,304.48,589.77,305.6z"/>
	<path class="st3" d="M827.98,672.38c-1.86-3.91-4.33-8.22-5.43-12.5c-0.8-3.1-1.32-6.23-2.19-9.32c-1.03-3.65-2.28-6.72-3.95-10.12
		c-0.72-1.48-1.34-3.36-2.53-4.54c-0.99-0.99-2.39-1.64-3.44-2.6c-1.64-1.5-2.79-3.41-4.36-4.96c-1.23-1.22-2.78-1.84-4.12-2.87
		c-3.15-2.4-6.21-5.68-8.6-8.8c-1.59-2.09-2.66-4.64-4.31-6.69c-1.56-1.94-3.64-3.6-5.28-5.46c-4.45-5.06-8.65-10.23-10.87-16.67
		c-1.98-5.73-3.04-11.71-5.16-17.4c-1.11-2.99-2.61-5.84-3.66-8.86c-1.27-3.67-1.58-7.66-2.02-11.48c-0.7-6.05-1.8-12.07-2.32-18.15
		c-0.54-6.29,0.04-12.99,0.8-19.23c1.6-13.21,8.75-25.5,12.7-38.11c6.55-20.94,14.52-41.41,21.3-62.29
		c2.16-6.66,3.64-12.87,3.78-19.93c0.09-4.48,0.97-9.5-0.14-13.9c-0.41-1.62-1.15-3-1.36-4.67c-0.23-1.84,0.17-3.56,0.49-5.37
		c0.32-1.83,0.52-3.63,2.86-3.62c4.3,0.03,8.83,4.87,10.69,8.19c4.14,7.41,5.18,16.01,9.95,23.14c5.48,8.19,11.08,15.8,15.61,24.6
		c4.88,9.48,8.9,19,12.54,28.99c2.15,5.9,5.9,10.9,8.07,16.75c1.69,4.55,2.76,9.14,3.35,13.96c1.7,13.99,2.12,28.26,1.77,42.34
		c-0.24,9.72-2.76,19.31-4.19,28.9c-1.03,6.9-2.12,14.13-4.05,20.87c-1.6,5.6-3.93,11.11-5.9,16.6c-2.93,8.15-5.65,16.42-8.82,24.48
		c-2.04,5.17-5.57,10.86-5.72,16.52c-0.15,5.42,0.49,10.89,1.31,16.23c0.92,6.02,2.01,11.92,1.3,18.02
		c-0.23,1.97-0.6,3.75-1.09,5.64c-0.44,1.71-0.34,4.91-2.17,5.75C829.99,677.11,825.36,674.03,827.98,672.38z"/>
	<path class="st3" d="M845.18,650.38c3.54-1.87,6.81-3.88,10.69-4.92c2.83-0.75,5.71-1.04,8.43-2.12c3.83-1.52,7.58-3.2,11.45-4.62
		c3.93-1.44,7.92-2.17,11.96-3.16c4.62-1.13,8.96-2.98,13.5-4.35c5.63-1.7,12.08-3.54,16.94-6.91c5.94-4.12,10.68-9.29,15.85-14.24
		c3.68-3.53,6.3-8.28,8.85-12.63c2.07-3.53,4.18-7.09,5.69-10.91c1.58-3.99,3.07-8.18,4.16-12.32c1.47-5.55,3.32-11.04,4.62-16.63
		c1.27-5.48,1.43-11.22,2.49-16.75c1.05-5.47,2.77-10.57,2.79-16.21c0.02-3.53,0.01-7.08-0.09-10.61
		c-0.24-8.07-1.8-15.97-2.65-23.98c-1.02-9.57-3.26-19.2-2.13-28.85c0.5-4.27,0.67-8.58,1.01-12.87c0.36-4.36,0.19-9.91,2.3-13.85
		c0.7-1.31,1.86-2.31,2.67-3.57c0.88-1.36,1.48-2.77,1.97-4.32c0.74-2.37,1.44-4.97,1.79-7.43c0.42-2.95,0.2-5.66-1.43-8.18
		c-0.54-0.83-1.5-2.36-2.51-2.73c-2.06-0.74-4.16,1-5.5,2.24c-3.59,3.29-6.46,7.31-10.11,10.58c-5.55,4.98-11.43,7.78-18.2,10.52
		c-4.92,1.99-9.96,4.08-14.6,6.68c-5.63,3.15-9.67,8.79-13.83,13.58c-4.75,5.48-9.67,11.03-13.42,17.26
		c-2.73,4.54-5.03,9.41-7.31,14.19c-3.07,6.43-4.67,13.2-6.59,20.01c-2.64,9.33-6.51,18.47-8.1,28.06c-1.12,6.76-2.4,13.67-2.9,20.5
		c-0.21,2.88-0.34,5.78-0.64,8.64c-0.46,4.35-1.74,8.34-2.59,12.58c-1.23,6.13-1.39,12.43-1.85,18.65
		c-0.47,6.34-2.79,12.48-4.37,18.61c-1.28,4.96-2.92,9.78-4.37,14.68c-1.11,3.77-2.81,7.47-3.62,11.31
		c-0.84,3.98-0.14,8.06-0.04,12.06C846.16,648.17,846.74,647.8,845.18,650.38z"/>
	<path class="st3" d="M713.57,657.41c5.91,0.69,11.77,1.1,17.41,3.15c3.28,1.19,6.35,2.62,9.72,3.58c2.89,0.82,5.81,1.47,8.55,2.75
		c3.2,1.49,6.1,3.69,9.02,5.64c10.24,6.84,21.4,12.09,31.63,18.87c4.42,2.93,8.46,6.02,12.39,9.54c5.03,4.51,10.81,7.88,15.27,13.02
		c1.88,2.16,3.43,4.56,5.71,6.34c2.03,1.58,4.25,2.77,6.13,4.58c3.44,3.33,6.85,7.39,9.69,11.22c2.26,3.05,4.37,6.24,6.48,9.4
		c1.43,2.12,1.77,2.87,4.17,3.47c6.01,1.51,12.19,3.31,18.41,3.42c3.44,0.06,6.23,0.69,9.53,1.48c3.27,0.78,6.9,0.78,10.25,1.07
		c2.7,0.24,5.4-0.2,8.08,0.15c1.74,0.23,5,1.31,6.29-0.54c-0.32-1.82-1.75-3.14-2.93-4.48c-1.92-2.18-3.91-4.29-5.77-6.53
		c-1.78-2.14-3.38-4.39-5.33-6.38c-3.35-3.41-7.1-7.25-11.05-9.95c-1.64-1.12-3.73-1.84-5.45-2.89c-1.84-1.12-3.7-2.16-5.58-3.23
		c-2.73-1.55-5.11-3.84-8.06-4.94c-2.01-0.75-4.11-0.94-6.2-1.48c-5.09-1.31-9.48-4.84-13.42-8.21c-3.78-3.23-6.44-7.24-9.5-11.11
		c-4.58-5.8-10.66-10.07-15.74-15.4c-3.38-3.55-6.2-6.41-10.68-8.6c-5.2-2.54-9.68-6.32-14.84-8.92c-5.92-2.98-12.72-4.11-19.03-6
		c-5.51-1.65-11.33-2.79-16.98-3.86c-3.09-0.58-6.23,0.01-9.31-0.47c-3.23-0.5-6.18-2.26-9.22-3.36c-3.89-1.41-8.44-3.17-12.35-1.01
		c-1.29,0.71-2.38,1.76-3.66,2.5c-0.71,0.4-1.89,0.69-2.47,1.23c-1.5,1.36-0.61,3.09,0.28,4.86
		C714.73,655.28,714.51,654.23,713.57,657.41z"/>
	<path class="st3" d="M584.8,743.94c-6.14,10.14-12.59,19.86-19.13,29.69c-4.35,6.54-6.84,14.35-9.93,21.54
		c-2.99,6.96-5.22,13.7-6.04,21.25c-0.91,8.34,1.17,16.61,1.61,24.94c0.3,5.79,0.34,11.57,0.82,17.35
		c0.54,6.41,1.75,10.65,4.47,16.22c2.95,6.05,2.83,12.49,2.93,19.14c0.1,6.31,1.66,12.12,2.25,18.36c0.76,7.98,0.86,15.58,3,23.32
		c0.49,1.76,1.07,7.08,3.1,7.53c1.79,0.4,5.04-4.95,5.77-5.92c5.11-6.82,8.58-14.81,13.89-21.38c3.64-4.5,8.34-7.88,11.58-12.72
		c2.34-3.5,4.29-7.32,6.75-10.73c5.92-8.23,14.83-13.5,22.85-19.22c3.01-2.15,5.02-5.11,7.57-7.74c3.1-3.21,5.45-3.71,9.3-5.26
		c4.45-1.79,7.91-5.78,10.93-9.34c2.54-3,4.62-6.46,7.31-9.35c1.88-2.02,4.24-3.46,6.31-5.24c4.7-4.03,7.43-9.67,10.63-14.86
		c3.9-6.31,8.45-12.16,11.9-18.76c7.04-13.45,12.88-27.38,15.98-42.33c1.16-5.57,1.26-11.23,0.95-16.89
		c-0.25-4.49,0.45-10.67-0.74-15.08c-0.87-3.25-3.35-4.9-5.98-6.77c-2.78-1.98-4.59-4.42-7.75-5.78c-3.56-1.53-7.1-3.09-10.75-4.37
		c-5.73-2.01-9.64,0.55-14.19,4.08c-6.74,5.24-16.97,5.77-25.04,7.79c-7.87,1.96-15.73,3.73-22.9,7.63c-8.07,4.38-17.9,6-26.73,8.45
		c-3.81,1.06-7.43,1.57-10.6,4.09C585.4,744.65,586.15,745.48,584.8,743.94z"/>
	<path class="st3" d="M311.82,452.66c-6.28-1.28-17.07-2.62-24.09-5.47c-3.51-1.42-6.59-3.92-9.65-6.1c-4.07-2.9-8.26-5.56-11.7-9.2
		c-4.75-5.03-8.14-11.2-10.97-17.49c-3.69-8.21-8.76-14.83-13.84-22.23c-3.31-4.81-6.98-9.45-9.5-14.76
		c-2.94-6.2-4.12-13.02-6.01-19.56c-1.53-5.28-4.71-9.77-7.07-14.73c-2.76-5.81-5.23-11.77-7.74-17.69
		c-2.02-4.76-3.94-9.29-6.5-13.76c-2.82-4.92-4.18-10.1-6.13-15.33c-1.62-4.34-4.54-2.14-7.48-4.42c-1.31-1.02-1.19-1.92-0.94-3.7
		c4.15,0.51,8.37,2.33,12.7,2.42c7.56,0.16,15.35-1.11,22.94-1.23c20.19-0.31,40.11-4.92,60.1,0.4c6.08,1.62,11.18,2.83,17.46,2.37
		c5.12-1.53,10.3-1.75,15.53-0.66c2.27,1.05,4.55,2.09,6.82,3.14c3.72,1.9,8.31,4.59,11.89,6.99c4.29,2.87,7.73,6.9,11.8,10.05
		c5.66,4.38,10.01,8.46,14.6,13.94c2.9,3.46,6.8,6.52,8.64,10.77c0.83,1.93,1.31,4.37,1.93,6.36c2.33,7.53,4.28,13.49,3.48,21.54
		c-1.03,10.29-4.73,17.4-11.08,25.32c-4.34,5.4-11.6,9.16-17.13,13.28c-3.03,2.26-5.36,4.35-8.74,6.18
		c-3.98,2.15-7.02,4.3-10.32,7.44c-4.22,4.01-6.38,8.49-8.25,13.91c-1.56,4.54-2.16,9.4-3.73,13.93c-1.05,3.01-2.53,7.26-4.2,9.87
		C314.17,454.43,314.69,453.25,311.82,452.66z"/>
	<path class="st3" d="M390.58,336.7c-7.3-7.53-13.09-14.64-21.84-19.81c-3.04-1.8-5.07-4.44-7.19-7.21
		c-3.23-4.22-6.34-8.64-10.01-12.49c-2.37-2.48-5.22-4.06-7.87-6.16c-6.88-5.45-8.49-12.49-10.55-20.56
		c-0.68-2.64-1.59-5.26-1.99-7.97c-0.78-5.29,0.95-9.2,2.35-14.28c2.62-9.54,4-19.36,6.75-28.88c1.82-6.32,3.73-12.54,5.92-18.73
		c1.31-3.7,1.14-8.71,4.99-10.48c4.79-2.19,7.79,0.21,10.55,3.91c7.25,9.68,13.95,19.83,21.69,29.13
		c7.34,8.81,17.21,15.12,25.52,22.95c5.09,4.8,9.65,10.1,14.74,14.92c6.78,6.41,8.98,16.08,10.62,24.97
		c2.8,15.16-9.64,27.35-19.7,36.77c-3.91,3.66-8.15,4.99-12.83,7.45c-2.42,1.27-8.52,4.76-7.01,8.21
		C395.85,338,396.81,337.29,390.58,336.7z"/>
	<path class="st3" d="M331.29,653.48c-8.14-8.53-18.42-16-19.89-28.29c-0.89-7.46-1.25-15.52-0.79-23.04
		c0.3-4.94,0.08-9.92,0.78-14.82c0.47-3.31,1.19-6.59-0.14-9.82c-2.97-7.23-13.85-9.55-20.63-8.93c-3.01,0.28-5.88,1.37-8.76,2.17
		c-3.72,1.03-7.55,1.33-11.24,2.44c-8.06,2.42-16.16,7.51-23.32,11.84c-5.84,3.53-12.06,5.62-18,8.81
		c-6.62,3.56-11.36,10.15-16.23,15.68c-5.15,5.85-10.22,12.09-14.45,18.66c-3.35,5.2-5.22,11.15-8.51,16.4
		c-5.29,8.44-11.23,16.68-17.42,24.47c-1.77,2.23-4.05,3.84-6.01,5.94c-2.13,2.29-3.76,4.85-5.71,7.27
		c-1.74,2.16-8.12,5.02-7.57,7.68c3.4,0.35,6.57-0.15,9.96-0.66c4.8-0.72,9.47-0.19,14.32-0.22c5.33-0.03,10.49-0.96,15.85-0.85
		c3.76,0.07,7.29-0.14,10.85-1.4c3.12-1.1,5.93-2.05,9.31-2.27c5.3-0.34,9.54,1.79,14.59,2.34c5.63,0.62,10.7-2.33,16.44-1.17
		c4.82,0.97,10.56,3.19,14.93,5.51c4.04,2.14,7.67,5.49,12.38,6.14c3.27,0.45,8.31-1.56,11.5-2.37c8.18-2.09,16.22-4.39,24.3-6.89
		c4.16-1.29,8.04-2.3,11.68-4.75c3.73-2.51,7.1-5.48,10.7-8.15c2.36-1.76,4.99-3.12,5.86-6.07c0.7-2.37,1.04-5.05,1.48-7.48
		c0.54-2.98,0.64-4.97-1.69-7.33c-0.69-0.7-2.01-1.15-2.33-1.81C333.91,652.67,334.31,652.84,331.29,653.48z"/>
	<path class="st3" d="M1107.52,961.19c5.61,4.12,14.56,9.05,19.05,15.09c3.75,5.04,7.74,10.96,10.98,16.3
		c3.55,5.85,5.79,12.24,8.76,18.37c2.79,5.76,6.21,11.4,7.86,17.65c2.45,9.28,3.32,18.09,4.35,27.59c0.7,6.46,0.62,13.54,3.4,19.51
		c2.1-4.71,4.62-9.17,7.88-13.21c1.86-3.07,4.47-5.15,7.82-6.26c2.47-0.13,4.94-0.13,7.4,0.01c5-0.33,10.13-2.76,14.96-4.04
		c3.54-0.94,5.92-3.08,9.24-4.25c2.74-0.96,11.08-2.06,10.59-6.42c-1.12-1.16-2.29-2.27-3.5-3.33c-1.64-1.77-3.34-3.49-5.09-5.15
		c-3.18-3.12-5.24-7-8.36-10.13c-3.34-3.35-7.59-5.63-11.01-8.93c-4.63-4.48-8.48-9.84-12.9-14.55c-2.58-2.94-5.23-5.82-7.96-8.63
		c-2.01-1.56-4.16-2.87-6.46-3.95c-4.45-2.91-7-7.64-11.47-10.42c-2.63-1.29-4.96-2.98-7.01-5.08c-2.32-2.92-5.09-5.32-8.3-7.2
		c-3.08-0.95-6.22-1.66-9.41-2.12c-2.16-0.63-4.34-1.23-6.52-1.8c-2.46-0.37-6.53-0.77-8.93-0.31c-2.45,0.47-5.17,4.89-7.65,3.47
		C1105.25,961.72,1105.82,959.94,1107.52,961.19z"/>
</g>
<g id="Layer_9">
	<path class="st4" d="M1327.59,658.82c7.16,3.93,13.21,9.07,18.17,15.42c0.44,2.75,0.7,5.52,0.77,8.31
		c0.42,3.73,2.18,7.45,2.36,11.16c0.19,3.96-2.08,7.71-1.72,11.82c6.94,2.82,14.07,2.02,21.33,0.89c9.45-1.47,18.87-3.56,27.62-7.27
		c13.35-5.66,28.89-4.97,43.01-6.6c13.3-1.54,26.29-2.13,39.52-4.59c14.18-2.64,27.97-6.28,42.3-8.2c8.1-1.08,14.93-5.36,22.97-6.59
		c6.06-0.93,12.12-2.15,18.14-3.25c4.36-0.8,9.13-2.68,13.26-4.09c3.13-1.07,5.86-1.77,7.12-5.45c2.86-8.37-5.28-16.43-10.88-20.9
		c-7.6-6.08-15.4-8.87-25.01-9.69c-14.83-1.26-30.8-4.47-45.55-0.4c-17.2,4.74-34.26,8.6-52.04,10.36
		c-16.47,1.64-33.14,3.98-49.7,3.37c-5.76-0.21-11.27,0.33-17.01,0.45c-4.57,0.1-11.37,1.25-15.68-0.27
		c-3.76-1.32-4.61-4.93-8.32-6.29c-2.19-0.8-8.53-1.63-10.94-1.31c-4.1,0.55-7.88,5.51-11.18,7.77
		C1334.5,644.6,1323.09,656.35,1327.59,658.82z"/>
	<path class="st4" d="M1350.56,731.3c-3.82,6.94-13.41,18.1-12.09,26.43c0.61,3.85,2.46,8.12,3.93,11.73
		c3.27,8.03,8.37,16.01,7.25,25.08c-0.7,5.68-6.97,14.91-1.28,18.93c5.52,3.9,15.15,6.92,21.87,8.07
		c6.73,1.16,16.19-0.68,21.91-4.43c6.51-4.27,7.92-12.42,13.11-17.67c4.44-4.5,12.74-6.12,18.21-9.61
		c12.73-8.14,27.59-13.81,41.78-18.86c9.77-3.48,19.36-1.96,29.2-4.55c14.25-3.74,26.21-11.61,40.18-16.07
		c4.54-1.45,8.8-3.65,13.43-4.71c5.46-1.25,9.95-1.16,14.83-4.12c6.97-4.22,14.59-8.61,19.25-15.43
		c7.33-10.73,3.84-23.52-8.44-28.22c-4.2-1.61-11.74-1.04-16.04-1.27c-6.18-0.33-12.2,0.51-18.26,1.64
		c-11.17,2.09-21.58,6.72-32.66,8.88c-6.6,1.29-13.21,1.25-19.8,2.82c-9.33,2.23-18.36,5.49-27.66,7.79
		c-8.19,2.03-16.75,5.4-25.19,5.81c-8.75,0.42-17.13,1.79-25.8,2.55c-5.11,0.45-9.93,0.16-14.89,1.74
		c-5.09,1.62-9.83,4.28-14.82,6.18c-5.7,2.17-8.5,0.79-14.28-0.19c-4.9-0.84-9.27-0.03-14.12,0.03
		C1351.44,733.85,1352.71,733.85,1350.56,731.3z"/>
	<path class="st4" d="M1334.37,718.5c0.32-0.34-18.88,15.77-15.5,21.27c1.8,2.93,4.99,3.41,8.11,3.61
		c8.33,0.54,12.32-3.14,17.04-9.57c3.14-4.27,5.93-13.98-0.61-15.44c-4.82-1.08-11.09,0.92-15.03,3.43
		C1328.95,721.84,1330.34,722.81,1334.37,718.5z"/>
	<path class="st4" d="M1269.57,734.66c-12.27-4.63-21.78-8.53-32.83-14.52c-4.08-2.21-9.15-3.98-12.72-7.02
		c-4.7-4-8.98-13.08-11.49-18.65c-4.38-9.75-4.34-29.09,5.99-35.32c7.43-4.49,16.22-6.17,24.41-8.65
		c7.46-2.27,14.63-5.51,22.14-7.76c5.56-1.67,10.97-2.16,16.69-2.87c8.26-1.03,12.78-2.94,19.84,2.16
		c5.29,3.82,10.34,6.22,13.94,11.92c3.28,5.21,6.78,10.94,11.2,15.26c4.44,4.34,8.08,6.31,10.09,12.77
		c2.43,7.8,3.63,15.41-0.43,22.84c-7.81,14.28-19.47,29.65-37.38,26.52c-7.29-1.27-12.39-1.8-19.59,0.28
		C1275.18,732.83,1272.14,733.81,1269.57,734.66z"/>
	<path class="st4" d="M1270.42,745.74c-7.02,7-15.84,12.65-17.25,22.76c-0.77,5.5-0.93,8.83,3.18,12.87
		c6.08,5.99,13.76,11.77,21.36,15.7c15.47,8,35.35-1.49,42.48-16.34c2.96-6.17,7.54-15.64,6.44-22.56
		c-0.93-5.81-9.33-11.54-13.45-15.13c-6.78-5.9-19.17-1.55-27.25-0.87c-9.02,0.76-13.19,1.26-17.6,10.24
		C1269.55,752.06,1270.54,751.26,1270.42,745.74z"/>
	<path class="st4" d="M1315.57,790.95c2.36,7.62,5.87,14.6,10.55,20.94c2.5,0.67,4.55,2.05,6.14,4.14c3.31,2.47,3.87,2.73,7.63,0.42
		c8.28-5.1,10.07-12.75,5.87-21.81c-3.63-7.82-14.11-18.55-23.59-15.97c-2.32,0.63-8.59,4.57-9.22,7.2
		C1312.17,789.06,1314.96,791.46,1315.57,790.95z"/>
	<path class="st4" d="M1284.02,801.16c-2.92,8.87-15,32.02-4.01,41.78c3.07,2.73,9.31,3.68,13.16,5.02
		c4.64,1.61,10.95,0.66,15.3-1.71c4.88-2.66,7.74-9.79,10.28-14.53c2.64-4.93,7.41-15.27,5.1-20.96c-1.69-4.17-9.32-8.85-13.41-9.82
		c-6.58-1.55-14.65-0.98-21.36-0.65c-1.93,0.09-7.69-0.02-8.91,1.55C1280.89,801.88,1281.6,801.95,1284.02,801.16z"/>
	<path class="st4" d="M1174.14,669.81c-1.72,13.64-3.19,27.03-6.18,40.34c-0.64,2.87-2.3,5.67-2.34,8.61
		c-0.03,2.26,1.64,8.98,3.42,10.4c5.55,4.43,19.6-3.02,25.65-3.78c4.94-0.62,11.26-2.07,16.04-0.45c4.73,1.59,7.03,7.09,11.58,8.45
		c4.07,1.22,11.55-3.99,12.47-8.45c1.59-7.74-7.1-11.71-11.89-15.31c-5.03-3.78-7.81-8.82-11.29-13.95
		c-2.93-4.33-5.99-6.29-9.78-9.46c-4.6-3.85-6.49-9.74-10.51-14.06c-4.89-5.25-11.1-1.28-17.42-0.44
		C1174.54,671.92,1175.19,672.14,1174.14,669.81z"/>
	<path class="st4" d="M1172.38,748.23c0.52,9.99-0.73,21.17,4.06,30.34c3.82,7.31,9.7,12.15,14.29,18.86
		c5.45,7.96,6.03,17.74,11.24,25.83c3.45,5.35,8.57,9.09,12.88,13.67c7.98,8.47,11.82,19.44,19.23,28.31
		c2.69,3.22,5.13,3.92,8.44,6.03c2.38,1.52,4.37,3.91,7.14,4.77c4.37,1.35,8.44,0.02,11.65-2.75c3.78-3.27,8.37-5.26,12.04-8.77
		c3.46-3.32,9.09-9.89,8.23-15.34c-0.41-2.57-2.77-4.51-4.01-6.72c-2.5-4.47-2.82-8.96-2.98-13.98c-0.21-6.78-2.24-13.1-2.49-19.95
		c-0.25-6.95-2.32-11.5-8.68-14.72c-9.98-5.06-6.63-13.81-9.98-22.64c-2.47-6.5-7.92-11.19-6.57-18.74c1.07-6,3.26-8.79-3.03-12.97
		c-8.2-5.45-16.44-0.82-25.3-0.6c-4.21,0.1-6.94,0.76-11.19-0.24c-7.15-1.67-10.77,2.57-17.8,3c-7.14,0.44-10.99-0.43-15.52,5.74
		C1174.71,748.4,1175.58,748.12,1172.38,748.23z"/>
	<path class="st4" d="M1012.88,634.91c0.11,9.04,0.02,17.78-0.52,26.76c-0.31,5.08-1.91,9.95-2.22,14.96
		c-0.43,7.2,2.89,13.14,8.32,17.72c7.93,6.68,17.23,5.74,26.88,6.88c8.56,1.01,16.5,1.12,25.1,0.69
		c18.12-0.91,37.28,6.18,51.36,17.33c6.82,5.4,14.69,4.04,22.48,7.09c2.83,1.11,4.6,1.87,7.59,0.92c3.43-1.09,5.58-2.43,7.62-5.23
		c6.83-9.38,9.55-21.9,9.99-33.17c0.2-5.28,2.24-11.67-0.31-16.49c-2.08-3.92-7.79-6.17-11.84-7.8c-8.66-3.49-18.62-5.46-27.98-5.21
		c-3.96,0.11-7.73,0.76-11.74,0.43c-4.43-0.36-8.84-1.75-13.28-1.97c-7.36-0.36-14.71,0.84-22.14-0.09
		c-4.28-0.54-7.93-2.53-11.88-4.08c-4.75-1.87-9.75-1.99-14.51-3.57c-9.29-3.09-15.63-12.02-24.3-16.21
		c-4.24-2.05-16.66-2.68-20.11,1.41C1012.03,635.62,1012.71,635.67,1012.88,634.91z"/>
	<path class="st4" d="M934.04,656.06c-1.7,6.96-0.96,13.47,2.21,19.55c2.15,1.13,4.17,2.45,6.06,3.95
		c3.86,2.87,6.57,5.91,11.65,6.03c6.89,0.16,13.61-1.9,20.45-2.24c2.49-0.13,5.28,0.66,7.44-0.93c3.65-2.68,3.93-8.3,7.79-10.89
		c1.97-1.32,4.24-1.8,6.58-1.85c2.33-0.05,4.18,0.77,5.73-1.51c1.4-2.06,2.57-10.14,2.72-12.35c0.28-4.02-1.18-3.96-4.06-5.55
		c-3.73-2.05-6.97-3.93-11-5.45c-5.6-2.12-10.32-2.37-16.28-2.37c-3.54,0-6.95-0.3-10.37,0.78c-4.1,1.3-7.69,1.91-11.96,2.5
		c-3.91,0.55-7.85,1.29-11.72,2.07C934.71,648.73,933.63,651.08,934.04,656.06z"/>
	<path class="st4" d="M848.14,679.92c-2.8,2.37-8.89,5.7-8.56,9.7c0.16,1.99,1.42,3.98,2.64,5.43c1.98,2.33,4.88,3.51,7.1,5.61
		c2.42,2.29,4.21,5.01,6.33,7.55c2.14,2.57,4.04,4.51,7.44,5.21c3.45,0.71,8.63-2.12,11.85-3.33c5.05-1.91,10.2-2.29,15.28-3.78
		c5-1.46,9.66-4.28,14.61-5.97c3.38-1.15,6.92-1.7,10.25-2.99c3.24-1.25,7.15-2.42,9.04-5.44c2.02-3.23,3.99-7.59,3.53-11.34
		c-0.32-2.67-0.4-5.99-1.44-8.49c-0.97-2.34-2.95-4.05-4.62-5.86c-3.28-3.54-6.66-9.06-11.28-10.92
		c-10.04-4.03-19.54,7.09-25.51,13.82c-2.31,2.6-5.36,5.47-8.57,6.98c-3.71,1.74-8.83,1.76-12.91,2.41c-3.41,0.54-6.86,1.78-10.28,2
		C849.63,680.73,844.33,679.42,848.14,679.92z"/>
	<path class="st4" d="M701.36,689.07c-0.64,5.26-2.66,12.17-0.89,17.46c0.69,2.07,3.25,4.78,4.69,6.41c2.76,3.13,6.55,2.8,9.22,5.71
		c2.14,2.34,3.97,5.52,5.54,8.27c3.16,5.54,6.82,10.53,10.29,15.85c2.29,3.52,5.03,4.58,8.6,6.59c4.16,2.35,7.4,5.88,11.48,8.26
		c2.38,1.39,4.77,2.39,7.57,2.19c5.21-0.36,7.45-5.56,9.44-9.8c2.97-6.34,9.86-14.56,6.49-21.96c-1.84-4.05-5.68-7.46-8.93-10.4
		c-4.3-3.89-8.57-7.59-14.31-8.97c-5.97-1.44-10.02-4.81-14.94-8.26c-3.89-2.72-6.26-7.93-11.02-9.05c-4.2-0.99-9.1-2.25-13.39-2.36
		c-2.31-0.06-8.91-1.28-9.86,1.81C702.32,692.27,703.78,692.77,701.36,689.07z"/>
	<path class="st4" d="M767.09,766.3c3.77,3.34,7.48,7.04,12.08,9.25c4.55,2.19,8.78,3.04,12.44,6.89c2.63,2.76,4.86,5.88,7.74,8.36
		c1.83,1.58,3.8,2.84,5.54,4.5c4.13,3.95,7.57,6.48,13.55,6.33c5.04-0.12,10.07-0.31,15.1,0.31c2.64,0.32,6.15,1.83,8.51,0.2
		c1.65-1.14,1.85-2.53,2.53-4.38c1.3-3.56,2.64-6.6,3.24-10.4c1.18-7.47,3.74-17.27,1.16-24.66c-2.79-7.99-16.04-10.71-23.28-11
		c-5.13-0.21-10.76,1.91-15.2-1.43c-4.65-3.5-6.49-9-12.16-11.21c-3.81-1.49-8.13-2.44-12.21-2.36c-3.34,0.07-8.02-0.77-10.18,2.36
		c-1.38,2-1.79,5.07-2.5,7.35c-0.83,2.68-1.85,5.34-2.51,8.08c-0.3,1.24-1.49,4.85-1.55,6.37
		C769.29,763.45,770.81,764.74,767.09,766.3z"/>
	<path class="st4" d="M854.58,808.21c3.11,5.83,7.39,10.36,12.84,13.59c1.47,1.98,3.27,2.66,5.41,2.02
		c3.51,0.19,7.24-1.84,10.72-2.5c3.89-0.73,8.59-1.05,12.55-0.3c3.31,0.63,6.08,2.34,9.05,3.84c6.32,3.19,12.59,7.87,19.67,9.04
		c5.92,0.98,11.89-0.21,17.73,1.46c3.16,0.9,8.26,4.35,11.34,1.89c4.52-3.62,4.37-12.65,3.52-17.8c-0.73-4.43-2.13-8.61-3.14-12.97
		c-0.52-2.24-0.59-4.82-1.39-6.98c-1.67-4.55-6.66-10.47-10.23-13.39c-5.04-4.12-10.55-5.29-16.73-6.58
		c-5.72-1.2-10.34-4.64-16.16-6.02c-4.75-1.13-7-3.66-10.93-6.44c-3.1-2.19-6.05-3.18-9.76-4.04c-3.47-0.81-7.06-1.31-10.5-2.2
		c-2.95-0.77-5.67-2.35-8.67-2.88c-6.03-1.05-11.3,3.56-16.56,6.07c-2.18,1.04-2.87,1.19-3.76,3.42c-1.11,2.8-0.83,6.45-0.63,9.36
		c0.4,5.87,0.1,11.61,0.49,17.4c0.25,3.78,0.59,7.47,0.63,11.26C850.14,810.57,852.27,810.82,854.58,808.21z"/>
	<path class="st4" d="M955.7,793.6c1.84,5.71,5.57,12.88,4.88,19.08c-0.12,1.08-0.89,2.52-1.09,3.65
		c-0.73,4.15-0.26,8.47-0.66,12.66c-0.7,7.49-2.9,16.17,4.95,20.67c3.99,2.29,8.52,0.28,12.44-1.1c3.92-1.38,7.91-2.46,11.85-3.72
		c4.33-1.38,7.71-4.73,12.11-5.73c3.97-0.9,7.51-1.54,11.41-2.9c11.09-3.87,21.9-9.03,33.57-10.97c5.75-0.96,11.51-1.13,17.17-2.59
		c6.99-1.81,14.27-1.67,21.17-3.47c9.7-2.53,19.46-5.02,29.06-7.95c10.54-3.22,21.11-5.32,31.81-7.79
		c6.52-1.5,13.06-1.79,19.71-2.48c4.15-0.43,8.72-1.93,10.98-5.71c3.16-5.26,1.12-13.95-0.54-19.21
		c-2.03-6.44-5.38-11.71-8.39-17.66c-3.61-7.14-8.97-10.32-17.15-10.36c-2.89-0.01-6.43-0.61-9.21,0.2
		c-3.09,0.9-7.19,3.79-9.81,5.42c-4.59,2.87-8.9,5.85-14.03,7.74c-6.92,2.56-14.95,3.08-22.13,4.83c-6.43,1.57-12.98,2.3-19.36,4.11
		c-6.49,1.84-13.09,2.88-19.85,3.2c-13.86,0.67-26.83-5.99-40.62-6.45c-5.68-0.19-11.43,0.31-17.09-0.21
		c-4.79-0.44-9.19-0.1-13.92,0.89c-10.58,2.22-22.4,8.82-27.48,18.78C952.63,792.17,951.04,794.06,955.7,793.6z"/>
	<path class="st4" d="M986.1,855.59c2.35,3.25,4.45,6.67,6.27,10.23c0.39,2.04,0.95,4.03,1.69,5.97c0.98,2.7,2.16,5.48,4.02,7.72
		c3.56,4.26,10.43,7.83,15.43,10.01c4.46,1.94,9.07,1.84,13.83,1.28c7.2-0.85,14.31-2.51,20.89-5.57
		c6.16-2.86,12.03-5.04,18.31-7.56c6.95-2.79,12.91-6.43,20.19-8.51c4.13-1.18,8.18-2.16,12.42-2.8c7.39-1.12,13.41-4.54,19.84-8.13
		c6.14-3.43,12.28-6.88,18.39-10.38c5.98-3.43,11.56-7.43,18.39-8.95c3.93-0.87,7.31-1.43,10.76-3.79
		c3.76-2.57,8.61-3.11,12.99-4.51c6.52-2.08,9.68-3.49,9.94-10.72c0.23-6.31-2.67-11.49-4.89-17.32c-1.08-2.83-1.75-5.01-4.32-6.73
		c-4.03-2.7-9.64-4.37-14.47-3.61c-14.26,2.25-24.64,14.39-38.57,17.41c-9.48,2.05-19.41,3.03-29.12,2.43
		c-4.44-0.27-8.59-0.76-13.06-0.34c-8.98,0.84-17.21,4.27-25.74,6.87c-13.65,4.17-27.23,8.11-41.34,10.29
		c-3.25,0.5-6.81,0.47-9.95,1.42c-3.52,1.06-6.21,3.71-9.3,5.53c-3.55,2.09-7.4,3.28-10.8,5.73
		C981.8,845.97,981.34,853.56,986.1,855.59z"/>
	<path class="st4" d="M1002.92,903.43c-0.89,8.58-1.55,15.41,1.03,23.6c1.24,3.92,2.27,7.89,3.3,11.87c0.54,2.1,1.15,4.91,3.03,6.26
		c2.55,1.83,7.74,2.25,10.77,2.63c8.96,1.14,17.21-5.28,23.8-10.51c4.43-3.51,9.27-4.78,14.34-7c6.21-2.71,12.33-5.88,18.35-8.99
		c5.36-2.76,10.44-6.01,15.73-8.88c3.99-2.16,8.39-2.63,12.47-4.44c5.57-2.47,9.06-7.84,14.05-11.14
		c5.98-3.95,13.48-6.96,20.13-9.59c4.08-1.62,8.49-2.03,12.52-3.62c3.94-1.56,7.22-4.45,10.5-7.05c3.29-2.61,5.91-3.59,10.11-4.23
		c6.89-1.04,13.42-5.18,19.63-8.14c5.05-2.41,10.11-4.98,15.68-5.93c1.67-0.28,3.29-0.07,4.92-0.28c4.73-0.61,7.97-6.29,8.49-10.72
		c0.39-3.29-1.86-6.53-3.03-9.54c-0.98-2.52-2.16-4.94-3.11-7.47c-2.51-6.69-6.09-7.93-13.07-8.57c-8.57-0.79-15.36,3.93-22.85,7.54
		c-3.14,1.52-6.19,3.5-9.49,4.61c-1.85,0.62-3.73,0.69-5.61,1.17c-3.15,0.81-5.5,2.46-8.21,4.15c-5.25,3.25-10.87,5.11-16.6,7.31
		c-5.47,2.1-10.58,4.06-16.43,4.75c-10.8,1.29-19.63,8.44-30.43,9.07c-8.55,0.5-14.99,3.94-22.44,7.7
		c-4.68,2.36-9.7,3.58-14.17,6.34c-5.24,3.23-11.02,5.38-16.25,8.53c-1.97,1.19-3.82,2.79-5.66,4.18c-2.55,1.92-5.34,2.62-8.45,3.25
		c-4.4,0.88-8.31,3.24-12.7,3.93c-2.48,0.39-4.82,1.03-6.4,3.23C1004.96,900.14,1004.07,902.5,1002.92,903.43z"/>
	<path class="st4" d="M1021.37,959.43c0.71,6.4,2.46,12.47,5.25,18.21c1.14,0.56,2.33,0.97,3.58,1.22
		c5.11,2.27,8.55,5.52,14.33,5.55c2.29-0.19,4.56-0.57,6.8-1.12c3.39-0.16,6.71-0.74,9.95-1.74c5.8-2.42,10.84-7.67,15.79-11.42
		c5.19-3.93,11.01-6.54,16.46-10.05c5.77-3.72,11.08-8.49,17.67-10.75c4.94-1.69,9.6-3.5,14.43-5.53c2.48-0.99,4.98-1.92,7.5-2.79
		c2.56-1.59,5-3.35,7.32-5.27c4.39-2.94,9.19-5.12,13.7-7.87c6.39-3.9,14.03-6.45,19.97-10.98c4.77-3.64,8.05-8.44,13.07-11.85
		c4.83-3.29,10.31-7.3,15.78-9.46c3.77-1.49,7.26-2.43,10.69-4.68c1.81-1.67,3.87-2.89,6.19-3.66c1.35-0.11,2.59-0.54,3.72-1.27
		c2.46-1.43,5.92-5.36,7.65-7.61c1.28-1.65,3.3-3.53,3.82-5.45c0.75-2.8-1.41-6.23-3.22-8.12c-5.52-5.76-10.53-6.78-17.76-4.16
		c-6.18,2.23-11.57,4.53-18.16,5.41c-4.82,0.65-9.07,1.52-13.43,3.91c-3.16,2.12-6.38,4.15-9.65,6.09
		c-2.83,1.24-5.68,2.45-8.54,3.62c-7.92,3.37-15.43,6.99-22.97,11.13c-4.16,2.43-8.48,4.56-12.95,6.37
		c-5.48,2.87-10.58,6.32-15.28,10.34c-7,4.65-13.49,5.39-20.9,8.8c-3.66,2.09-7.32,4.17-10.99,6.24c-4.41,2.04-8.92,3.83-13.52,5.37
		c-3.79,1.41-7.4,3.17-11.19,4.52c-3.36,0.71-6.46,2.03-9.3,3.96c-2.41,2.46-4.63,5.08-6.65,7.86c-2.82,2.9-6.49,4.94-10.41,5.91
		c-3.12,0.77-7.33,0.33-8.22,4.3c-0.19,0.86,0.03,1.82-0.11,2.66C1020.08,955.09,1023.47,952.54,1021.37,959.43z"/>
	<path class="st4" d="M992.56,962.13c-1.19,6.27-0.61,12.2,1.75,17.76c0.2,2.86,1.81,4.35,4.85,4.44c2.86,1.14,5.75,3.06,8.61,1.11
		c5.3-3.62,8.11-14.06,9.09-20.11c0.71-4.38-3.03-10.25-7.24-11.76c-3.16-1.14-7.78-1.89-9.8,1.79
		C997.95,958.76,998.25,963.32,992.56,962.13z"/>
	<path class="st4" d="M882.25,901.73c-1.69,9.09-5.2,20.82,1.4,28.95c2.47,3.04,5.54,4.77,9,6.54c4.26,2.18,8.41,4.77,13.09,5.82
		c4.75,1.06,9.65,0.82,14.46,1.69c4.77,0.86,9.21,2.75,14.02,3.39c9.28,1.23,16.89,4.44,25.48,8c6.21,2.58,12.47,2.92,18.9,4.53
		c4.28,1.07,6.79,1.57,10.69-0.96c3.71-2.41,8.94-5.85,11.99-9.07c3.46-3.65,4.25-7.33,3.75-12.25c-0.47-4.66-3-8.62-4.26-13.08
		c-1.59-5.62-3.25-10.2-8.86-12.99c-6.52-3.25-14.42-3.49-21.43-4.68c-4.42-0.75-8.7-1.55-13.19-1.43
		c-4.17,0.11-7.43,0.55-11.52-0.39c-7.17-1.66-14.52-3.92-21.92-4.06c-7.68-0.15-14.68-1-22.04-3.14
		c-4.48-1.3-11.23-3.63-15.89-1.86C881.23,898.54,882.25,902.26,882.25,901.73z"/>
	<path class="st4" d="M833.35,863.64c-0.38,6.54,1,12.49,4.14,17.87c0.78,3.21,2.85,5.16,6.22,5.85c4.22,1.96,8.69,3.53,13.38,3.6
		c9.71,0.14,19.5,0.5,29.21,0.43c8.17-0.05,16.77-0.14,24.92,0.4c6.7,0.44,12.93,2.56,19.32,4.37c3.94,1.12,7.79,1.11,11.74,2.14
		c9.27,2.4,18.35,4.65,27.83,6.23c2.78,0.46,5.54,1.43,8.36,1.61c3.41,0.22,4.96-0.6,7.67-2.57c5.08-3.69,6.81-9.22,6.48-15.52
		c-0.29-5.54-1.31-12.12-2.59-17.48c-1.29-5.42-2.96-6.22-8.16-8.09c-5.42-1.95-10.98-4.38-16.57-5.7
		c-4.69-1.11-9.41-1.25-14.19-1.67c-7.08-0.62-13.75-1.17-20.83-0.1c-5.87,0.89-11.34,0.8-17.18,0.05
		c-5.54-0.71-10.94-1.58-16.55-1.5c-4.38,0.06-8.23,0.81-12.61,0.36c-7.6-0.78-15.17-0.08-22.8-0.04
		c-7.12,0.04-16.45-4.97-22.93-0.48C835.06,855.6,829.78,865.43,833.35,863.64z"/>
</g>
<g id="Layer_3">
	<g>
		<g>
			<path d="M1148.52,942.06c36.25,32.89,68,68.04,100.81,106.5c-24.2,2.96-46.71,0.18-64.37,18.24
				c-15.94,16.3-25.83,35.69-38.14,55.17c0-7.66-0.32-15.34,0.06-22.99c1.48-29.82-1.94-58.49-14.97-86.03
				c-8.87-18.74-24.44-30.35-39.48-42.79c-6.11-5.06-10.13,0.67-12.88,4.96c-11.61,18.17-27.05,25.08-48.01,17.88
				c-2-0.69-4.66-1.04-6.53-0.31c-17.84,7.03-29.61-2.45-42.87-12.9c-23.11-18.23-50.03-28.05-80.05-29.02
				c-24.96-0.81-28.88-5.2-34.25-30.01c-2.73-12.6-5.74-23.45-23.29-25.5c-20.69-2.41-29.57-30.74-17.25-49.56
				c4.42-6.74,8.98-13.34,11.85-20.87c4.19-10.99-0.23-17.41-11.87-16.73c-13.19,0.77-24.4-3.01-34.52-11.55
				c-20.4-17.21-44.43-27.37-70.75-33.77c-3.52,12.17-8.59,24.95-13.68,37.75c-13.42,33.82-40.75,54.86-68.92,74.06
				c-19.03,12.97-35.26,26.51-44.51,48.06c-7.22,16.83-16.26,32.72-31.83,43.86c-4.91,3.51-9.34,6.63-15.63,5.24
				c-0.69-1.58-1.9-2.96-1.63-3.93c8.47-30.67,2.99-60.94-1.95-91.36c-7.44-45.81-4.66-89.92,24.44-128.94
				c0.72-0.97,0.75-2.46,1.08-3.63c-4.66-6.04-8.48-2.62-12.47,0.59c-12.7,10.22-27.78,16.05-42.78,21.44
				c-25.54,9.19-46.56-5.52-68.38-14.97c-7.43-3.22-1.96-10.41-3.85-15.38c-4.61-0.12-8.04,2.3-11.08,4.65
				c-27.63,21.27-58.46,18.54-89.61,11.79c-13.5-2.92-14.78-6.59-9.52-19.4c5.35-13.02,4.99-25.95-1.09-40.21
				c-31.31,15.53-62.81,8.86-94.31,1.92c-15.07-3.32-29.8-2.9-44.92,1.08c-16.93,4.45-34.37,5.86-51.44-0.37
				c-4.54-1.66-9.46-2.93-11.92-7.4c-0.63-2.48,0.69-3.95,2.24-4.59c31.2-12.89,48.88-39.65,65.81-66.28
				c14.56-22.9,33.9-39.1,58.51-48.72c17.57-6.86,35.28-14.82,56.95-11.55c-16.21-24.84-15.72-48.4-4.98-72.93
				c6.65-15.19,4.92-14.83-10.04-21.58c-26.03-11.75-47.77-29.23-62.02-54.75c-10.66-19.09-20.51-38.47-28.1-59.09
				c-8.44-22.93-23.68-41.73-40-59.63c-4.72-5.17-10.97-9.12-15.22-20.23c58.02,9.19,114.85-4.11,174.62,11.67
				c-10.77-33.36,10.11-60.71,9.99-91.34c-0.05-13.54,3.26-26.06,13.99-38.99c7.35,15.2,14.47,27.77,21.94,40.08
				c8.91,14.67,20.1,26.39,34.83,34.18c18.98,10.04,29.35,26.58,37.15,45.39c15.68-8.1,35.39,13.08,38.89,47.03
				c13.93-35.41,35.96-47.95,70.99-33.05c-6.95-32.18,4.4-60.45,6.34-89.63c1.37-20.59,1.28-40.93-10.93-61.54
				c14.36-1.61,23.49,4.48,31.87,11.13c13.36,10.61,28.19,17.96,43.53,25.4c49.49,23.99,112.44,81.98,103.73,152.88
				c-2.39,19.48-2.74,39-9.94,57.64c-4.42,11.43,3.61,20.71,7.76,30.08c5.5,12.4,9.99,24.78,10.86,38.33
				c0.25,3.99,1.45,8.62-0.06,11.92c-8.51,18.6-6.58,35.01,10.12,48.32c15.07-59.59,51.4-116.95,27.15-183.67
				c10.14-4.77,16.13,0.37,19.96,5.75c27.79,39.1,59.76,75.61,76.71,121.56c1.35,3.66,3.08,7.18,4.76,11.05
				c7.79-3.61,9.63-11.16,14.22-16.31c10.24-11.49,22.9-20.08,36.93-26.05c18.47-7.86,35.09-17.46,45.3-35.68
				c1.62-2.9,3.46-6.36,9.17-7.84c2.45,12.79,3,25.98-1.15,37.5c-10.8,29.94-5.52,59.72-2.87,89.81
				c4.94,56.02-11.16,102.77-60.97,134.19c3.04,1.84,6.64,2.96,9.69,0.39c21.17-17.78,46.03-13.06,70.23-11.36
				c5.6,0.4,10.08-0.1,15.24-2.45c17.97-8.23,36.18-11.24,52.22,4.06c13.01,12.41,29.08,14.61,45.7,15.33
				c13.81,0.6,28.62-2.4,41.24,1.64c15.73,5.03,31.92,6.99,47.16,11.36c15.14,4.34,20.76,2.33,25.53-10.64
				c0.44-1.2,1.5-2.21,2.4-3.2c12.91-14.28,62.6-23.68,78.67-13.8c9.74,5.99,16.82,7.51,25.11-2.22c5.59-6.57,14.29-10.03,23.13-7.8
				c35.57,8.98,71.05,0.8,106.51-0.28c34.74-1.06,69.39-4.65,104.11-6.58c17.47-0.98,30.12,12.59,31.8,32.73
				c1.94,23.15-3.74,31.29-25.02,34.51c-37.91,5.73-75.97,10.57-113.77,16.92c-21.85,3.67-43.38,9.37-64.94,14.65
				c-4.88,1.2-10.29,2.98-12.8,8.75c5.02,3.82,9.56,1.38,13.6-1.02c11.76-6.99,24.75-9.4,37.92-12.23
				c45.28-9.73,91.01-16.81,136.69-24.24c22.94-3.73,28.72-0.97,33.41,16.9c6.48,24.64-0.55,38.95-20,46.58
				c-49.44,19.4-100.41,34.06-150.96,50.05c-10.89,3.45-16.84,11.24-22.64,19.55c-7.13,10.21-15.97,15.24-28.54,12.24
				c-12.94-3.09-25.63,0.98-38.44,1.42c-3.03,0.1-4.85,1.75-6.64,3.85c-8.94,10.5-19.52,18.35-33.73,19.73
				c-5.15,0.5-5.94,4.85-8.13,7.97c-9.63,13.69-22.13,21.72-39.5,20.74c-3.06-0.17-6.81-0.53-9.16,0.93
				C1211.21,901.74,1178.65,918.45,1148.52,942.06z M372.5,299.75c-8.82-12.06-19.49-22.69-27.09-37.13
				c-4.24,22.94,10.48,32.47,25.12,42.07c6.86,8.03,13.73,16.06,20.59,24.08c0.84-0.74,1.68-1.48,2.52-2.22
				C386.59,317.61,379.54,308.68,372.5,299.75z M1241.01,701.17l-0.14-0.19c0.46,10.01,7.16,13.86,15.74,15.21
				c10.56,1.67,21.21,2.76,31.82,4.11c15.37,1.97,34.54-11.5,39.23-27.58c3.35-11.48-4.06-20.84-22.58-28.21
				c-4.55-1.81-9.38-2.89-13.95-4.65c-2.48-0.95-6.78,0.18-6.57-4.35c2.88-5.02,10.08-0.37,12.51-6.17
				c-5.57-6.01-11.91-6.7-19.61-5.16c-9.41,1.89-17.15,7.18-25.76,10.62C1225.83,665.16,1222.39,679.9,1241.01,701.17z
				 M223.13,331.5c6.27,23.89,17.1,45.52,30.19,66.49c10.24,16.4,22.55,29.73,39.45,38.74c14.48,7.72,19.68,4.79,23.34-12.8
				c-10.31-3.74-20.84-7.15-31.04-11.38c-13.37-5.54-19.42-11.06-23.75-20.39c24.78,6.75,46.8,31.99,79.13,10.38
				c-36.32-16.75-77.17-16.32-102.93-47.1c25.76,15.83,54.62,21.73,83.8,27.16c-29.61-23.25-63.24-38.52-98.33-50.98
				c6.37-5.79,12.9-1.27,18.93,0.33c12.06,3.2,23.83,7.51,38.88,12.39c-22.09-19.08-50.49-21.41-67.22-42.44
				c16.2,9.06,32.92,16.13,51.26,19.45c-5.06-4.42-10.74-7.68-16.29-11.15c-5.29-3.31-11.81-5.68-12.74-15.93
				c31.95,16.48,58.28,36.7,81.27,61.77c-6.16-27.19-30.73-40.15-47.49-59.42c5.21-3.1,8.22-1.15,10.41,0.58
				c19.31,15.25,37.35,31.65,48.55,54.27c4.34,8.76,9.23,17.33,14.76,25.37c4.66,6.78,10.79,12.35,21,13.22
				c-8-32.85-22.52-59.99-47.38-81.51c26.85,9.5,39.7,32.41,52.84,55.87c9.95-17.89,8.8-27.02-9.42-40.02
				c-23.99-17.11-50.14-31.02-80.66-32.19c-20.49-0.79-41.04-0.36-61.56-0.04c-5.47,0.08-11.51-1.79-16.98,2.67
				C207.66,307.74,214.67,320.04,223.13,331.5z M683.76,243.23c0.56,2.59,0.51,5.52,1.76,7.72c16.14,28.55,17.19,59.1,12.81,90.57
				c-0.73,5.23-2.56,11.48,4.89,17.18c7.61-41.89,9.79-81.16-19.43-115.5c-2.36-6.68-8.23-10.34-12.88-15.08
				c-25.44-25.96-57.14-42.59-91.08-59.93c3.8,29.51-4.98,57.37-7.85,85.93c-0.89,8.81-0.82,17.78,2.99,26.3
				c7.96,17.77,14.37,18.92,29.14,4.5c-8.96-11.42-23.38-19.11-26.72-38.11c11.32,10.51,17.48,22.31,28.35,29.22
				c4.77,3.03,9.51,10.26,15.7,2.2c5.39-7.04,0.56-11.29-4.82-15.3c-4.29-3.2-8.81-6.27-12.42-10.15
				c-9.63-10.36-17.82-21.64-19.92-36.22c11.49,11.68,18.59,26.81,34.19,38.5c-8.28-25.11-25.26-43.63-27.89-68.02
				c6.91,7.29,8.83,17.75,17.38,25.7c-1.99-8.72-7.7-15.27-5.01-26.22c15.33,23.12,12.2,51.93,31.36,71.64
				c2.79-15.81-4.74-29.63-3.44-48.05c7.99,12.42,9.23,22.87,10.83,33.18c0.6,3.87-0.29,8.67,4.41,10.28
				c3.39,1.16,7.39,0.23,10.1-2.16c4.09-3.62,2.47-8.26,0.61-12.36c-3.37-7.41-7.08-14.67-11.63-24.01
				c19.23,7.4,14.6,31.45,33.01,39c-0.52-5.93-0.85-9.66-1.15-13.13C680.66,239.79,681.82,242.37,683.76,243.23z M377.35,717.36
				c-3.08-4.29-2.57-6.99-1.44-9.41c7.9-16.89,9.94-35.05,11.75-53.26c1.38-13.93,5.12-27.16,11.76-39.47
				c3.46-6.42,4.78-12.03-1.29-18.04c-6.48-6.42-11.97-13.44-22.75-8.31c-6.57,3.13-13.67,5.17-22.97,8.6
				c5.47-11.19,13.65-15.08,21-19.52c5.38-3.25,7.87-6.95,6.26-13.08c-1.54-5.87-1.37-12.82-9.44-14.5
				c-9.89-2.06-19.93-6.78-29.28,1.35c-14.48,12.61-22.5,52.66-14.55,70.37c3.18,7.09,7.09,9.08,14.62,5.94
				c8.5-3.55,16.14-10.61,29.67-8.37c-15.37,14.78-22.55,30.54-21.2,50.27c1.34,19.48,9.43,38.26,5.69,58.26
				c-0.77,4.13,2.21,6.6,6.42,6.88c12.01,0.81,25.23,3.98,35.71-1.5c23.51-12.29,51.08-16.56,70.84-36.63
				c13.07,14.38,3.56,27-1.87,39.42c15.74,9.76,40.26,9.72,59.37,0.29c13.21-6.52,14.11-9.57,7.13-22.6
				c-2.31-4.32-4.52-8.75-6.2-13.34c-2.75-7.51-6.8-10.39-15.25-7.86c-9.62,2.88-13.21-2.2-11.5-11.64
				c1.82-10.08,3.01-20.3,5.41-30.23c3.44-14.26-2.79-24.22-14.65-29.52c-12.35-5.51-23.91-11.41-33.32-21.26
				c-2.41-2.52-5.69-4.35-9.71-3.75c-5.77,4.56-6.28,11.36-7.63,17.88c-1.12,5.41-2.85,11.49-10.25,8.8
				c-11.08-4.04-15.47,3.11-19.91,10.61c-8.99,15.18-13.15,32.08-17.24,49C389.62,694.78,385.85,706.39,377.35,717.36z
				 M708.27,501.59c-10.45,7.09-20.85,13.92-30.99,21.11c-6,4.25-9.09,32.22-4.13,34.81c3.31-0.99,2.13-7.45,7.37-6.12
				c1.12,9.42,1.58,9.61-1.44,16.71c-10.22,24.07-22.91,46.26-46.3,60.39c-11.1,6.71-22.36,13.04-34.49,17.63
				c-7.63,2.89-12.72,7.49-14.96,15.63c-2.64,9.6-6.11,18.97-9.35,28.85c-5.2-3.41-4.64-8.19-5.57-12.32
				c-0.94-4.16,1.18-9.03-2.79-12.49c-24.54,5.43-29.25,16.66-15.35,36.28c18.62,26.28,37.38,31.42,68.42,18.76
				c27.3-11.14,27.12-11.07,16.6-37.91c-3.51-8.97-9.01-17.98-4.06-30.86c10.19,22.07,18.98,42.36,37.34,58.22
				c3-15.83,4.43-30.05,15.7-41.59c20.23-20.74,29.17-48.22,41.42-72.77c-5.34-7.32-14.28-6.28-18.8-13.11
				c5.1-4.82,11.51-5.06,17.22-6.81c5.52-1.69,9.7-3.99,9.9-10.73C734.76,540.76,735.35,516.41,708.27,501.59z M1128.3,741.23
				c-10.83-7.27-17.76-11.95-24.73-16.59c-20.88-13.9-42.85-23.49-68.85-17.91c-5.43,1.17-10.37-0.23-14.91-3.95
				c-9.99-8.19-20.36-13.37-33.38-5.1c-4.9,3.11-11.3,0.27-17,0.22c-10.49-0.1-21.08-7.88-31.14-1.8
				c-13.78,8.32-25.47,20.14-45.26,22.48c13.77,13.09,24.58,23.62,35.67,33.86c21.24,19.61,21.45,19.8,46.33,5.37
				c6.85-3.97,13.71-5.07,20.4-2.56C1041.11,772.42,1082.21,752.68,1128.3,741.23z M692.68,459.1
				c-12.55,20.22-32.04,24.05-51.1,28.46c-18.16,4.2-31.89,14.64-43.04,28.27c0.45,5.41,7.98,2.81,7.6,9.9
				c-28.37,4.26-49.33,19.57-62.42,45.82c-12.52,25.11-18.36,51.33-17.07,83.47c6.51-9.84,10.39-16.72,15.24-22.84
				c14.87-18.74,28.25-40.24,53.1-46.49c15.95-4.01,22.31-13.66,26.69-27.56c5.8-18.4,16.49-33.67,33.39-43.53
				c12.69-7.4,21.46-18.56,30.56-29.4C691.09,478.73,694.77,471.09,692.68,459.1z M1442.21,759.8c3.23-2.31,4.51-3.32,5.88-4.18
				c21.69-13.66,47.11-15.71,70.98-22.5c16.28-4.63,32.96-7.87,49.37-12.07c5.26-1.34,12.46-1.35,11.62-9.95
				c-0.89-9.09-7.94-6.61-13.34-6.57c-3.99,0.03-7.99,0.68-11.95,1.32c-31.23,5.06-61.94,12.99-93.51,16.26
				c-17.49,1.81-34.84,4.98-53.14,7.66c3.95,5.46,11.32,0.15,12.89,7.79c-14.39,4.45-28.54,7.05-43.16,1.8
				c-3.35-1.2-6.78-2.36-10.28-2.91c-8.37-1.33-16.48-0.1-21.79,7.01c-4.93,6.6,0.04,12.71,2.94,18.58
				c4.31,8.71,10.92,16.35,12.5,26.68c-10.95,3.28-8.17,9.65-2.58,14.91c10.78,10.15,28.67,4.45,31.76-9.63
				c3.28-14.95,6.69-19.94,16.43-24.09c2.88,3.78-3.63,8.47,1.12,12.18c25.81-8.3,51.49-16.56,77.18-24.81
				C1471.25,756.02,1458.22,761.67,1442.21,759.8z M537.87,334.27c-12.73-17.38-23.02-24.36-31.35-22.03
				c-10.15,2.84-19.16,18.74-19.97,35.3c-0.07,1.33,0.14,2.7-0.06,4c-0.49,3.27,1.3,7.21-2.87,9.79
				c-11.28-2.79-8.5-16.8-18.11-22.97c-8.53,16.85-24.68,20.42-40.72,24.38c-6.92,1.71-13.56,4.32-19.58,8.33
				c-10.4,6.93-19.18,15.75-20.23,28.45c-1.71,20.63,5.48,39.75,11.61,59.64c11.46-4.97,15-10.32,7.94-20.12
				c-4.04-5.61-7.99-12.17-4.29-20.67c6.88,5.8,8.46,15.21,18.05,17.27c5.47-11.01,11.96-20.65,27.64-19.95
				c-9.28-8.04-14.52-15.68-19.09-27.19c10.01,5.26,16.35,10.56,22.56,16.2c4.18,3.79,8.54,4.97,11.41-1.99
				c8.23-19.94,23.73-30.64,44.59-33.78c5.65-0.85,8.79-3.2,10.31-8.58C518.99,348.72,525.71,339.7,537.87,334.27z M1415.12,660.94
				c-13.98,0.78-26.51-1.99-37.3-10.11c-8.97-6.75-18.72-10.17-29.67-10.33c-4.93-0.07-8.5,2.78-9.62,7.72
				c-0.62,2.7,0.37,4.83,3.26,6.41c16.48,9.03,20.38,19.91,13.63,37.45c-1.36,3.53-2.36,7.15,1.04,9.72
				c2.95,2.24,5.66,0.13,8.44-1.62c13.8-8.7,29.11-13.39,45.09-15.92c50.63-8.01,101.27-16.05,151.95-23.72
				c9.59-1.45,15.09-4.96,13.09-15.52c-1.85-9.75-7.84-12.85-17.42-12.13c-25.34,1.9-50.74,3.15-76.09,4.9
				c-27.76,1.91-55.5,4.1-83.31,6.16c2.71,3.21,4.85,6.03,7.29,8.56C1408.11,655.22,1413.67,653.97,1415.12,660.94z M675.35,443.76
				c14.66-13.04,14.95-13.51,4.17-27.6c-11.07-14.48-22.48-28.69-34.98-42.05c-17.24-18.43-24.17-41.89-29.35-66.77
				c-17.85,7.77-33.26,16.57-39.52,34.91c-4.47,13.1-12.15,18.86-26.05,16.52c-5.79-0.97-11.5-0.11-13.55,8.05
				c47.06-11.22,74.19,14,95.78,54.47c-0.3-13.72-3.7-23.2,0.29-34.62c16.87,24.69,10.11,51.74,13.34,80.26
				c16.99-15.07,12.66-34.68,19.83-50.93C672.56,424.5,670.74,434.77,675.35,443.76z M178.15,674.15c2.43,2.73,4.88,2.42,6.79,1.77
				c23.94-8.17,47.82-4,71.21,1.59c14.31,3.42,25.33,0.36,35.15-9.6c5.93-6.01,11.73-12.16,17.39-18.42
				c3.47-3.84,5.97-8.35,1.8-13.09c-5-5.69-9.37-0.76-12.41,2.27c-8.91,8.88-19.32,15.72-29.33,23.13
				c-5.29,3.91-10.82,7.2-20.37,3.16c14.35-12.2,31.68-18.38,41.5-34.7c-25.79-1.1-38.2,21.87-59.19,29.84
				c1.43-7.97,8.67-9.58,10.84-17.11c-13.37,7.24-25.05,15.45-39.76,15.45c14.37-8.13,27.88-17.13,42.18-26.72
				c-7.64-1.86-14.76,3.25-23.06-3.14c24.59-8.46,49.97-4.21,73.13-12.73c-15.93-13.45-35.6-4.53-53.39-9.82
				c4.35-6.31,9.37-6.79,14.1-7.23c12.02-1.13,24.19-1.75,35.94,1.2c9.21,2.31,12.51-0.87,12.42-9.59c-0.04-3.44,2.08-6.98-1.6-11.7
				c-28.37-0.94-53.61,10.13-72.95,30.6C209.79,629.15,196.26,653.62,178.15,674.15z M966.56,836.35c3.73,0,5.85,0.66,7.1-0.1
				c22.82-13.94,48.94-18.54,73.81-26.82c35.17-11.72,70.72-20.86,107.75-23.76c4.86-0.38,10.69,0.43,12.18-5.7
				c1.85-7.61-7.71-4.05-9.67-8.88c1.62-5.65,8.49-11.77,0.86-17.62c-7.42-5.69-13.02-0.98-18.61,4.15
				c-2.88,2.64-6.72,4.38-10.36,6.02c-30.6,13.75-61.92,25.22-95.43,29.61c-6.61,0.86-13.25,3.75-21,0.42
				c6.17-6.97,15.92-4.25,21.43-11.55c-14.95,1.1-28.5-1.83-42.07-4.35c-9.75-1.81-17.57,1.66-24.09,8.44
				c-2.46,2.56-4.63,7.54-0.02,8.61c9.7,2.26,6.14,9.23,6.28,14.53C974.95,818.41,969.43,826.13,966.56,836.35z M643.33,755.86
				c-12.74,15.16-19.47,30.54-20.32,48.33c-0.77,16.12-4.25,31.73-8.16,47.29c-1.27,5.04-4.11,9.85-2.3,16.34
				c10.04-10.31,22.51-16.25,33.6-24.19c34.24-24.52,53.71-57.42,56.39-99.78c0.77-12.21-2.72-22.23-14.38-29.02
				c-3.56,36.45-1.18,73.12-23.5,107.35c-1.22-9.27,1.98-14.71,4.14-20.22c7.59-19.35,8.21-39.04,3.31-59.03
				c-1.63-6.64-4.22-12.56-13.34-12.59c-5.06,37.8-0.01,77.2-22.58,110.81C642.77,813.69,649.52,786.41,643.33,755.86z
				 M339.29,479.93c-15.14,6.5-25.28,27.9-21.42,43.38c1.39,5.56,4.58,7.24,9.8,5.79c14.64-4.06,28.97-2.41,43.41,1.56
				c10.35,2.85,13.34-2.3,10-11.61c-3.23-9-6.02-18.9-2.98-27.42c5.2-14.57-0.35-26.73-4.38-39.66
				c-3.63-11.63-6.83-23.39-10.18-34.96C328.79,425.48,317.29,455.57,339.29,479.93z M1097.06,673.31
				c-0.68,0.93-1.36,1.85-2.03,2.78c-11.69-7.64-24.48-13.32-34.82-23.35c-7.34-7.12-15.12-14.13-26.04-15.26
				c-9.87-1.01-15.88,1.83-13.17,13.54c1.41,6.09,1.58,12.41-0.18,18.56c-3.19,11.12,2.3,15.5,12.38,14.37
				c32.99-3.7,61.64,2.66,86.92,26.91c21.32,20.45,35.9,13.98,40.92-14.77c0.53-3.06,1.18-6.17,1.15-9.26
				c-0.11-11.64-6.55-18.73-18.25-18.33c-16.48,0.57-32.75-1.66-49.71-2.62C1095.28,668.66,1096.17,670.98,1097.06,673.31z
				 M565.97,846.01c3.71-37.84,37.01-53.14,52.35-81.94c-15.59,4.06-22.6,16.57-36.3,24.05c12.73-25.15,34.23-37.07,52.86-52.16
				c-11.39,3.68-22.2,7.51-33.73,8.99c-5.59,0.72-10.07,4.22-12.98,8.74c-13.82,21.43-25.54,43.41-27.1,70
				c-1.99,33.97,8.67,66.36,10.05,100.03c5.68-12.97,12.07-25.14,20.8-35.89c20.5-25.25,18.89-55.5,20.23-85.21
				c-14.8,25.17-26.79,51.32-33.54,79.87c-3.91-21.73,3.28-41.86,8.13-64C575.2,824.3,575.1,836.47,565.97,846.01z M997.93,848.25
				c9.18,3.99,8.54,11.29,7.88,17.76c-1.3,12.72,5.31,15.27,16.03,14.37c6.45-0.54,11.99-2.93,17.5-6
				c13.18-7.35,25.83-16.29,39.86-21.37c31.34-11.35,61.64-26.08,94.97-31.42c6.01-0.96,9.56-3.5,9.84-10.3
				c0.54-13.34-6.33-17.15-22.02-8.51c-27.25,15.02-57.1,22.2-86.27,31.53c-4.35,1.39-8.87,3.86-14.16,1.69
				c2.28-6.62,10.61-5.17,15.34-12.12C1048.89,830.8,1022.78,835.52,997.93,848.25z M426.97,599.08c6.1-34.5,36.56-40.29,58.76-55.6
				c-6.22-4.45-12,1.43-17.72-4.1c16.16-10.7,33.41-8.44,50.12-9.28c-29.15-3.63-58.36-8.03-85.07,13.14
				c-0.09-9.04,7.47-11.23,8.41-17.35c-12.26-2.52-23.19,3.81-34.83,3.14c-0.58-7.13,4.93-9.43,8.79-12.66
				c3.8-3.18,6.52-6.89,3.87-11.48c-5.27-9.14-5.35-19.27-5.93-29.57c-14.74,6.76-18.08,15.21-12.46,29.79
				c3.49,2.16,7.08-5.25,11.69,1.85c-12,12.1-19.96,26.1-15.73,45.39C400.95,571,412.11,583.79,426.97,599.08z M1016.52,932.35
				c13.35,0.22,22.84-1.39,31.6-7.82c15.37-11.29,31-22.09,47.93-31.21c33.75-18.2,67.93-34.93,105.66-43.3
				c5.76-1.28,11.62-3.84,9.1-11.82c-2.17-6.85-6.2-10.61-14.08-7.53c-21.96,8.6-44.09,16.76-65.98,25.55
				c-40.02,16.07-77.99,37.2-120.17,49.73C1010.61,914.25,1025.82,919.05,1016.52,932.35z M546.04,517.01
				c7.39-28.15,16.43-55.23,35.09-78.11c-3.61-1.83-6.33,3.76-10.48,0.13c8.48-14.52,24.02-13.45,39.93-16.43
				c-8.53-10.05-14.93-19.25-22.99-26.64c-8.65-7.94-20-14.01-31.66-11.87c-15.48,2.85-30.99,3.1-46.45,4.83
				c-9.83,1.1-19.91,3.54-24.4,14.96c19.15,4.28,22.24,3.42,29.59-7.81c0.97,0.91,2.22,1.63,2.81,2.7
				c9.99,18.23,17.45,19.38,30.3,4.04c4.08-4.88,7.89-9.29,16.41-9.44C544.77,433.25,555.89,476.4,546.04,517.01z M962.48,421.18
				c-10.22,8.07-21.69,13.12-32.16,19.73c-23.11,14.58-40.81,33.49-47.91,61.38c-5.8,22.79-5.95,46.61-15.67,70.47
				c16.25-12.16,10.86-27.93,12.66-41.97c1.84-14.29,3.78-28.87,13.54-40.49c1.48,14.79-5.86,28.41-3.48,46.62
				c12.29-25.52,4.97-53.44,21.37-76.01c3.4,8.05-3.23,13.12,0.1,19.81c11.4-15.18,21.53-30.82,35.62-43.06
				c-5.44,21.24-26.06,33.98-30.13,56.93c11.41-7.09,15.2-19.98,26.07-26.08c-13.42,28.86-41.15,49.86-45.04,84.29
				c4.57-4.02,8.4-7.61,12.45-10.93c21.31-17.47,39.14-38.66,41.75-66.17C953.42,456.94,955.16,438.99,962.48,421.18z
				 M961.23,895.72c17.45-0.21,24.21-9.84,18.94-23.37c-3.77-9.68-12.55-8.09-19.37-7.55c-33.23,2.62-65.51-0.96-97.05-11.79
				c-6.81-2.34-13.38-0.62-18.42,4.58c-3.78,3.9-3.67,9-1.8,13.78c2.94,7.53,9.35,8.4,16.46,8.43c20.48,0.08,40.74,2.93,61.08,5
				C935.86,886.31,949.1,893.17,961.23,895.72z M948.42,808.63c-2.9-6.68-0.55-20.05-11.88-22.5c-19.61-4.24-38.77-9.08-57.26-16.98
				c-4.73-2.02-11.81-2.17-14.26,3.59c-3.38,7.95-8.81,15.55-7.88,24.85c0.13,1.26,2.32,2.91,3.85,3.33
				c22.77,6.16,43.53,17.65,65.79,24.97C940.49,830.39,948.33,823.88,948.42,808.63z M1133.03,897.76
				c-8.59,4.13-15.08,8.88-21.97,12.74c-23.96,13.44-45.74,30.77-71.71,40.62c-4.22,1.6-8.71,2.56-9.11,8.28
				c-0.37,5.44,1.9,9.34,6.37,12.36c9.83,6.64,19.28,3.56,25.88-9.18c6.35-12.28,15.08-26.06,28.02-26.32
				c21.65-0.43,40.36-7.01,56.13-19.38c20.92-16.4,43.55-29.18,67.17-40.73c4.45-2.18,9.39-4.19,9.68-10.6
				c-34.4,10.67-62.52,32.44-95.27,44.42C1126.25,904.27,1132.68,903.21,1133.03,897.76z M672.33,275.23
				c-20.99-4.41-29.8,1.82-33.63,19.63c-3.3,15.38,0.94,28.71,6.77,42.51c8.97,21.22,27.12,35.01,40.42,52.66
				c15.72,20.85,32.79,41.74,25.63,71.16c-0.58,2.39-1.41,5.94,2.22,8.22c0.72-1.71,1.52-2.86,1.64-4.07
				c0.36-3.53,0.55-7.09,0.64-10.65c0.7-28.25-14.87-50.71-26.9-74.3C672.25,347.31,653.61,314.8,672.33,275.23z M818.54,522.79
				c11.19-23.47,19.15-44.64,22.55-67.29c0.91-6.05,4.95-12.34,1.59-18.29c-11.49-20.36-24.7-39.6-40.31-61.21
				c-0.1,23.94-5.24,43.21-11.22,62.44c-4.53,14.55,0.62,28.65,5.14,42.7c3.86-24.66,7.71-49.32,11.57-73.99
				c8.65,18.98,2.33,39.44,8.02,60.67c6.38-16.63,4.12-32.58,8.03-47.94c6.33,3.65,4.41,9.1,4.57,13.58
				c0.77,21.72-5.34,42.35-10.53,63.11C816.01,504.34,814.49,512.04,818.54,522.79z M734.49,629.14c15.21,5.63,29.24,11.27,43.57,16
				c14.31,4.71,24.47,17.42,40.2,20.8c-1.13-15.77-2.69-29.16-20.38-35.57c-11.69-4.23-19.63-14.85-25.54-26.33
				c-5.24-10.19-11.23-19.99-18.15-32.19c-0.51,9.45-6.6,11.85-11.74,14.87c1.82,3.06,4.5,5.46,4.27,7.54
				C745.41,606.3,738.49,616.58,734.49,629.14z M446.51,480.31c1.66-3.52,4.57-4.47,7-3.59c12.28,4.43,16.6-2.99,20.49-12.5
				c2.84-6.94,5.16-14.3,10.65-19.93c6.89-7.07,15.28-10.77,25.05-11.01c9.42-0.23,17.6,3.72,26.35,10.83
				c-8.04-21.04-48.66-23.87-79.75-7.85c-0.35,6.42,9.63,7.91,7.74,15.41c-9.89,0.42-14.9-9.84-24.66-10.67
				c-4.47,16.1-4.34,32.18-5.73,47.97c-0.43,4.88,2.25,10.48,4.75,15.08c3.86,7.1,11.32,6.89,17.79,5.48
				c6.69-1.46,3.82-7.87,4.46-12.41C462.14,486.39,450.76,486.04,446.51,480.31z M935.29,908.62c-5.66-1.24-10.43-2.37-15.23-3.32
				c-5.24-1.03-10.47-2.4-15.76-2.75c-15.54-1.03-20.21,6.14-14.12,20.51c3.15,7.42,9.52,7.27,15.67,7.52
				c22.13,0.89,43.29,5.49,63.1,15.65c4.02,2.06,8.21,3.35,12.79,3.49c7.31,0.21,14.61-1.75,15.83-9.22
				c1.26-7.71-2.17-14.63-11.4-17.02c-9.25-2.4-18.64-1.46-27.93-2.34c-10.72-1.01-21.76-0.84-31.49-5.02
				C926.92,909.02,931.37,909.88,935.29,908.62z M1128.67,971.76c23.96,23.07,31.57,53.58,39.15,86.43
				c11.09-14.01,25.21-18.47,39.8-24.67c-15.71-16.54-27.07-34.56-45.54-49.07c3.87,8.92,11.14,13.64,12.81,24.82
				C1159.12,994.36,1146.13,980.55,1128.67,971.76z M718.42,647.66c6.83,6.78,12.46,10.63,18.69,12.03
				c49.36,11.04,84.68,41.75,114.43,80.53c2.63,3.42,5.34,8.21,10.73,5.9c9.96-4.27,19.6-0.86,32.46,2.33
				c-13.46-13.34-22.2-26.29-39.84-28.19c-8.8-0.95-17.24-6.17-21.34-14.67c-6.34-13.14-17.84-19.32-30.01-25.16
				c-20.46-9.8-42.34-16.39-62.08-27.91C735.72,649.17,729.07,645.82,718.42,647.66z M858.5,627.86
				c52.99-2.2,84.42-21.72,96.49-85.14c-4.62,7.4-7.99,13.52-12.03,19.16c-12.33,17.23-31.07,26.04-48.17,37.29
				C882.41,607.32,867.14,612.8,858.5,627.86z M954.58,493.46c-1.91,8.22-5.41,16.37-10.88,23.4
				c-14.18,18.23-28.28,36.56-46.49,51.12c-8.79,7.03-15.35,15.61-20.67,28.22c23.27-10.7,45.68-19.26,59.78-39.15
				C949.49,538.46,965.6,519.89,954.58,493.46z M1249.77,747.22c-14.62-0.61-25.91,8.26-37.78,4.42c-2.16-5.77,5.04-5.05,4.52-9.44
				c-8.36,0-16.73-0.16-25.1,0.05c-5.94,0.15-10.95,2.83-10.96,9.22c-0.02,10.86,3.07,20.99,10.98,29.01
				c3.11,3.15,7.36,4.36,10.91,1.63C1216.99,770.81,1234.55,763.46,1249.77,747.22z M721.72,703.29
				c2.03,25.35,7.59,36.86,19.75,42.51c9.97,4.63,19,0.44,24.75-11.13c4.9-9.85-1.89-13.67-8.66-17.61
				c-13-7.58-26.78-13.79-38.4-23.76c-4.42-3.79-10.55-6.95-16.63-1C705.96,701.17,711.56,705.66,721.72,703.29z M462.23,579.41
				c5.9,4.51,8.97,7.07,12.25,9.31c20.2,13.81,34.67,9.84,44.73-12.16c1.29-2.83,2.83-5.55,4.04-8.41c2.28-5.35,8.63-11,1.35-16.43
				c-6.74-5.03-14.56-2.31-19.56,2.72C493.55,566.01,480.63,574.74,462.23,579.41z M821.91,768.73
				c-10.03-6.91-15.46-15.59-21.94-23.31c-4.11-4.9-9.56-8.21-14.22-1.52c-3.59,5.15-14.6,11.65-6.97,17.07
				c12.83,9.11,24.24,21.08,39.65,26.17c11.76,3.89,20.7-1.24,22.51-11.63c2.05-11.76-8.78-11.3-15.16-16.32
				C824.55,762.21,823.5,764.8,821.91,768.73z M1263.64,771.73c17.29,17.5,30.34,18,42.71,0.93c4.71-6.49,13.68-13.37,9.83-21.65
				c-3.65-7.87-14.63-7.19-22.72-8.45c-15.04-2.34-20.89,5.14-15.33,18.51C1274.12,765.69,1266.13,765.03,1263.64,771.73z
				 M972.07,670.17c7.65-1.6,14.89-3.12,22.13-4.63c3.91-0.81,8.8-1.19,8.9-6.24c0.11-5.04-2.37-9.07-7.88-11.04
				c-15.93-5.7-31.6-1.54-47.3,0.86c-1.84,0.28-3.71,2.43-4.95,4.15c-7.4,10.32-3.98,18.3,8.76,20.61
				c9.06,1.64,18.14,3.13,27.73,4.77C978.15,674.47,972.96,676.26,972.07,670.17z M352.45,199.79c-1.1,9.02,0.9,17.56-2.8,24.7
				c-8.83,17.02-2.17,31.45,7.59,44.53c11.65,15.61,26.23,28.9,38.08,48.39c-1.72-17.09-6.86-28.38-17.5-37.86
				c-13.13-11.69-25.37-24.52-28.59-45.5c11.01,7.65,11.38,20.89,21.48,27.09c-5.12-15.3-13.49-28.89-13.39-45.12
				c7.36,7.65,7.49,19.57,17.26,27.57C373.76,224.65,363.29,212.77,352.45,199.79z M888.12,690.07c-7.8,2.47-13.94,0.36-19.99-2.83
				c-3.51-1.85-7.13-3.61-10.88-4.87c-4.09-1.37-8.37-0.91-10.31,3.45c-1.79,4.04,1.69,6.6,4.39,8.78c2.02,1.64,4.48,3.02,6.97,3.76
				c22,6.54,41.19-2.39,59.49-12.43c7.81-4.29,1-12.04-0.54-18.04c-1.12-4.38-4.31-6.38-9.18-5.41
				C897.75,664.52,886.88,678.9,888.12,690.07z M826.45,568.67c11.03-25.21,18.83-48.64,25.64-72.66
				c4.38-15.46,5.83-29.21-3.57-42.9c-3.05,29.87-14.02,57.58-23.34,85.73C822.18,547.9,819.95,556.75,826.45,568.67z
				 M594.24,607.78c9.71,11.54,16.99,12.43,26.37,3.65c4.83-4.52,9.11-9.53,14.6-13.43c16.03-11.39,21.62-34.63,12.71-54.43
				c-8.56,13.34-14.35,27.03-16.92,41.96c-1.21,7.05-4.32,10.87-11.72,12.13C610.68,599.12,602.13,601.49,594.24,607.78z
				 M521.6,454.24c-14.16-1.83-29.56,7.54-34.9,20.83c-2.84,7.06-9.1,15.67-2.78,22.25c5.89,6.13,15.35,4.93,24.09,3.29
				c6.56-1.23,11.91-7.37,20.85-5.2c-4.96,6.02-9.04,10.98-13.15,15.96c15.12,10.24,21.82,4.42,20.37-26.63
				c-15.16,6.97-31.48,6.97-47.84,11.2C493.44,474.71,500.5,465.88,521.6,454.24z M1217.89,717.56
				c-0.35-9.17-18.37-38.45-25.2-41.28c-5.62-2.32-9.55-0.94-10.16,5.98c-0.66,7.52-1.61,15.02-2.4,22.54
				c-1.53,14.63,1.87,17.65,17.52,15.62c2.84-4.24-3.78-8.15-0.31-12.73C1205.23,708,1208.97,717.01,1217.89,717.56z M399.16,352.18
				c9.47-5.17,19.47-8.04,29.49-11.01c12.49-3.7,21.91-11.7,28.36-22.92c4.8-8.35,4.26-16.5-3.47-26.18
				C441.74,319.1,413.42,328.82,399.16,352.18z M1205.42,804.85c13.73,12.39,18.78,12.65,31.14,2.39c4.4-3.65,9.06-7,13.45-10.67
				c5.58-4.67,2.78-9.4-0.16-14.1c-3.16-5.05-7.2-4.52-11.3-1.6C1227.5,788.75,1216.55,796.79,1205.42,804.85z M405.45,251.71
				c7.8,21.68,5.55,40.79,6.11,60.04C435.65,301.37,433.81,274.47,405.45,251.71z M803.65,577.39
				c-4.07-28.52-30.58-45.85-32.16-74.07C764.48,526.93,780.81,564.25,803.65,577.39z M1284.3,812.17
				c-0.01,10.54,8.49,21.92,15.83,20.27c6.19-1.39,13.3-4.58,13.71-12.41c0.52-9.79-9.11-19.51-17.72-19.49
				C1287.81,800.56,1283.58,804.22,1284.3,812.17z M856.64,509.19c-3.08,10.18-6.04,20.39-9.27,30.52
				c-3.11,9.75-6.33,19.47-9.82,29.09c-7.33,20.24-7.41,20.21-2.99,29.36C849.57,570.41,856.66,540.95,856.64,509.19z
				 M796.58,536.24c-1.88-24.66-11.53-47.85-12.39-75.89C771.09,490.79,781.56,513.92,796.58,536.24z M382.31,235.25
				c2.36,18.71,5.74,36.54,18.7,51.72C401.27,250.09,401.71,237.87,382.31,235.25z M288.95,681.11c15.12,0.08,25.9-3.36,35.49-10.11
				c6.45-4.55,7.9-11.75,2.8-17.14c-5.14-5.43-10.23,0.56-12.86,4.57C308.41,667.53,298.99,672.53,288.95,681.11z M809.11,614.33
				c-2.39-27.46-32.74-37.52-37.98-63.31C777.88,575.69,790.24,596.95,809.11,614.33z M889.5,646.19
				c-24.62,0.82-35.93,5.23-39.55,14.93C873.38,667.73,876.22,666.72,889.5,646.19z M1230.94,834.32
				c10.88,6.14,36.94-5.68,38.22-15.41c0.32-2.43-0.36-4.4-2.46-5.71c-2.24-1.4-4.38-0.46-6.22,0.79
				C1251.01,820.42,1241.61,826.95,1230.94,834.32z M803.41,720.34c-16.52-20.34-37.48-32.63-62.25-38.63
				c4.65,6.57,12.25,7.89,18.89,10.92c8.09,3.69,16.95,6.6,20.86,15.5C785.34,718.19,793.2,720.8,803.41,720.34z M1251.11,861.44
				c13.45,4.91,19.59-2.83,25.2-11.61c1.3-2.04,1.26-4.23-0.3-6.1c-2.06-2.47-4.86-2.39-7.09-0.7
				C1262.49,847.94,1253.98,850.85,1251.11,861.44z M541.39,302.74c15.15,22.11,20.3,27.87,24.85,11.03
				C558.07,310.14,549.73,306.44,541.39,302.74z M862.4,829.67c12.75,3.49,24.42,11.33,40.98,9.51
				C888.59,832.7,876.38,827.22,862.4,829.67z M571.31,512.63c8.77-7.47,12.54-16.21,8.01-30.72
				C574.08,493.9,570.72,502.7,571.31,512.63z M689.26,293.19c-5.6,10.1-6.27,20.37-0.41,33.34
				C692.17,313.82,691.18,303.57,689.26,293.19z M626.85,444.18c-12.81,0.48-13.51,3.29-5.68,19.68
				C625.44,458.19,627.29,452.07,626.85,444.18z M823.45,624.21c2.72,13.68,5.44,27.37,8.17,41.05
				C831.9,650.83,829.54,636.94,823.45,624.21z M1010.92,958.24c-9.57,11.26-9.54,11.6,0.49,15.56
				C1012.91,969.08,1012.54,964.45,1010.92,958.24z M1332.51,798.41c-0.92-5.84,1.05-12.32-4.79-18.41
				C1322.79,788.98,1328.19,793.72,1332.51,798.41z M1327.75,731.28c7.58-3.65,12.77-4.99,14.95-13.24
				C1334.65,718.72,1330.97,722.01,1327.75,731.28z"/>
			<path d="M428.29,684.71c-2.98-22.42,11.46-48.27,30.61-55.17C448.46,648.37,439.03,665.36,428.29,684.71z"/>
			<path d="M1392.04,752.09c-9.68,8.83-15.14,7.03-28.06-9.19C1374.41,742.18,1383.05,745.01,1392.04,752.09z"/>
			<path d="M1438.22,670.27c34.33-12.56,70.2-11.48,105.68-13.66C1509.48,667.6,1474.1,671.36,1438.22,670.27z"/>
			<path d="M1362.94,658.91c8.53,1.2,8.53,1.2,15.73,6.66C1370.08,674.07,1368.04,673.21,1362.94,658.91z"/>
			<path d="M1241.01,701.17c-0.83-4.71-5.19-8.34-4.04-14.75c13.78,4.53,18.79,17.74,28.99,26.11
				c-11.69,2.98-15.24,1.24-25.09-11.55C1240.87,700.99,1241.01,701.17,1241.01,701.17z"/>
			<path d="M1022.4,907.57c9.26-0.71,17.06-1.31,25.6-1.97c-0.41,10.96-11.2,12.36-15.06,20.14
				C1026.12,921.54,1023.16,916.26,1022.4,907.57z"/>
		</g>
	</g>
</g>
<g id="Layer_2">
	<text transform="matrix(1 6.300000e-04 -6.300000e-04 1 1190.5211 293.1825)"><tspan x="0" y="0" class="st5 st6 st7">THE </tspan><tspan x="-184.69" y="83.33" class="st5 st6 st7">FRIENDLY </tspan><tspan x="-149.46" y="166.66" class="st5 st6 st7">DEAD CO.</tspan></text>
</g>
<g id="Layer_4" class="st0">
	
		<text transform="matrix(0 1 -1 0 -1231.1614 189.4334)" class="st5" style="display:inline; font-size:96.4157px; letter-spacing:-3;">THE FRIENDLY DEAD CO.</text>
</g>
<g id="Layer_5" class="st0">
	
		<text transform="matrix(0 1 -1 0 -1330.6086 93.171)" class="st5" style="display:inline; font-size:132.0407px; letter-spacing:-4;">THE FRIENDLY DEAD </text>
</g>
</svg>
